<?xml version="1.0" standalone="no"?>
<!DOCTYPE svg PUBLIC "-//W3C//DTD SVG 20010904//EN"
 "http://www.w3.org/TR/2001/REC-SVG-20010904/DTD/svg10.dtd">
<svg version="1.0" xmlns="http://www.w3.org/2000/svg"
 width="640.000000pt" height="360.000000pt" viewBox="0 0 640.000000 360.000000"
 preserveAspectRatio="xMidYMid meet">

<g transform="translate(0.000000,360.000000) scale(0.100000,-0.100000)"
fill="#000000" stroke="none">
<path d="M0 3184 l0 -416 47 7 c27 4 104 9 173 12 228 8 244 9 248 21 2 7 10
12 17 12 7 0 16 6 18 13 4 8 6 6 6 -4 1 -16 13 -18 101 -21 90 -2 139 3 154
17 8 8 17 15 21 15 4 0 13 -7 21 -15 20 -20 44 -19 44 1 0 15 2 15 25 0 28
-18 47 -14 38 9 -3 9 1 15 10 15 10 0 13 -7 10 -20 -7 -26 11 -26 37 0 12 12
26 18 32 14 18 -12 122 -13 129 -2 4 7 14 6 28 -1 11 -6 32 -9 46 -5 25 6 30
18 26 60 -2 29 43 38 77 16 l24 -15 -2 44 c-1 24 -1 49 -1 55 1 14 79 15 88 1
3 -5 11 5 17 24 8 24 17 34 31 34 31 0 44 13 55 55 11 40 33 52 100 54 18 1
26 7 28 24 4 25 75 78 91 67 6 -3 11 -1 11 4 0 6 1 14 2 19 2 13 32 31 51 32
10 0 29 12 42 26 13 14 29 23 34 19 7 -3 11 3 11 14 0 18 6 21 40 21 33 0 42
4 49 24 11 28 39 40 58 25 17 -15 31 -3 15 13 -20 20 -14 31 13 26 14 -3 28
-1 31 3 3 5 18 2 35 -6 26 -14 32 -14 59 0 16 8 42 15 58 15 15 0 37 6 48 14
13 10 33 13 63 9 34 -5 45 -3 53 10 11 20 88 24 88 5 0 -6 8 -4 19 6 11 10 25
15 32 10 7 -4 17 -1 23 7 6 8 23 19 37 26 21 9 27 8 36 -6 8 -12 14 -13 23 -5
8 8 24 8 53 2 89 -20 127 -21 147 -3 14 13 23 15 32 7 9 -7 20 -6 38 3 29 16
131 20 146 5 11 -11 87 -23 129 -20 37 3 43 3 130 -5 39 -4 81 -8 94 -9 13 0
26 -7 29 -13 2 -7 19 -13 38 -13 19 0 34 -4 34 -8 0 -10 76 -10 86 1 13 13 24
7 24 -12 0 -15 10 -22 43 -29 23 -5 46 -5 52 0 15 13 25 9 19 -7 -4 -10 0 -15
15 -15 12 0 21 -4 21 -10 0 -19 38 -31 59 -18 14 8 23 9 33 1 7 -6 27 -14 45
-17 17 -4 37 -14 43 -21 9 -11 17 -12 31 -4 16 8 19 6 19 -12 0 -16 5 -20 20
-16 14 4 23 -3 32 -24 11 -25 19 -29 50 -29 33 0 38 -3 39 -22 l0 -23 16 23
c8 12 22 22 30 22 11 0 13 -9 7 -45 -4 -31 -3 -45 5 -45 6 0 14 7 17 15 4 10
16 13 37 10 18 -2 40 -4 51 -4 12 -1 16 -6 12 -17 -11 -28 4 -58 39 -81 28
-18 39 -21 60 -13 34 13 32 13 38 -10 3 -13 14 -20 30 -20 14 0 27 -6 30 -14
4 -10 17 -13 46 -9 33 5 41 3 41 -10 0 -12 10 -16 43 -15 23 0 45 5 49 11 4 6
35 12 68 12 45 0 65 5 74 17 7 9 29 19 49 23 20 4 37 12 37 19 0 6 8 2 16 -9
10 -12 18 -16 21 -9 2 8 19 10 45 6 25 -3 39 -1 35 5 -4 5 19 10 56 10 72 1
125 9 162 23 14 6 38 10 52 10 18 0 24 4 19 15 -5 13 -2 13 17 1 23 -14 153
-15 322 -2 157 12 240 14 251 5 7 -6 22 -6 37 0 15 6 29 6 32 2 3 -5 14 -7 24
-4 31 8 35 -16 4 -28 -15 -7 -41 -17 -58 -25 -24 -10 -130 -44 -155 -49 -21
-5 -98 -27 -110 -32 -8 -4 -19 -8 -25 -8 -5 -1 -17 -5 -25 -8 -35 -13 -88 -26
-132 -33 -27 -3 -48 -10 -48 -14 0 -4 -20 -11 -45 -14 -24 -4 -47 -11 -50 -17
-4 -5 -10 -7 -15 -4 -5 3 -11 1 -15 -5 -4 -6 -11 -7 -17 -4 -6 4 -14 0 -19 -7
-8 -12 -11 -12 -19 1 -7 12 -10 12 -10 1 0 -7 -6 -11 -14 -8 -8 3 -22 -1 -33
-8 -10 -8 -28 -15 -41 -15 -13 0 -21 -3 -19 -7 3 -5 -8 -8 -24 -9 -16 -1 -29
4 -30 10 0 6 -4 1 -9 -11 -5 -13 -14 -23 -20 -23 -6 0 -8 4 -5 10 7 11 -23 2
-41 -12 -6 -4 -19 -6 -28 -2 -19 7 -76 -14 -76 -28 0 -5 -4 -7 -8 -4 -5 3 -22
-8 -37 -24 -16 -17 -34 -30 -41 -30 -7 0 -16 -10 -20 -22 -4 -13 -10 -25 -13
-28 -4 -3 -20 -23 -37 -44 -47 -65 -75 -91 -91 -88 -8 2 -25 -4 -38 -12 -24
-16 -25 -33 -10 -171 5 -55 -1 -71 -35 -88 -31 -16 -37 -37 -11 -37 12 0 21 6
21 13 1 6 7 1 15 -13 l14 -25 9 25 c9 24 10 24 21 -15 14 -50 14 -132 1 -140
-6 -4 -8 -16 -5 -28 2 -12 2 -16 -1 -9 -5 10 -10 8 -21 -8 -8 -12 -21 -19 -28
-16 -7 2 -27 -8 -44 -25 -23 -22 -27 -29 -14 -29 10 0 1 -12 -25 -32 -31 -24
-40 -37 -36 -51 5 -16 2 -18 -15 -12 -14 4 -23 1 -27 -9 -3 -9 -12 -16 -19
-16 -14 0 -75 -29 -75 -36 0 -3 4 -3 9 1 5 3 12 1 16 -5 3 -5 -3 -10 -14 -10
-12 0 -21 -5 -21 -10 0 -6 -17 -10 -39 -8 -22 1 -46 -4 -55 -11 -9 -8 -24 -10
-38 -5 -20 6 -21 5 -9 -10 8 -9 11 -19 7 -23 -3 -3 -6 0 -6 8 0 11 -2 11 -10
-1 -7 -11 -10 -11 -10 -2 0 10 -5 10 -21 -2 -12 -8 -28 -12 -35 -9 -10 3 -12
0 -9 -10 4 -10 -2 -16 -19 -19 -17 -4 -26 0 -29 11 -4 14 -5 14 -6 0 -1 -18
-44 -21 -70 -5 -7 5 -16 5 -20 0 -3 -5 -18 -10 -33 -12 -21 -2 -26 1 -22 13 8
21 -15 19 -24 -2 -4 -10 -13 -19 -21 -21 -10 -2 -12 5 -8 28 4 17 2 30 -3 30
-6 0 -10 -11 -10 -25 0 -22 -4 -25 -25 -21 -14 3 -25 0 -25 -5 0 -5 -7 -9 -15
-9 -8 0 -15 3 -15 8 0 4 -11 12 -25 19 -19 8 -25 8 -25 -1 0 -17 -43 -42 -48
-27 -2 6 -8 11 -13 11 -6 0 -7 -5 -4 -10 3 -6 3 -14 0 -20 -8 -13 -45 10 -45
28 0 7 -5 10 -11 7 -6 -4 -8 -13 -5 -21 4 -9 -2 -13 -17 -11 -13 1 -21 -3 -20
-10 2 -7 -2 -13 -7 -13 -6 0 -10 -7 -10 -16 0 -8 -5 -12 -11 -9 -6 4 -27 7
-47 7 -20 0 -45 4 -55 10 -12 6 -23 6 -32 -2 -8 -7 -15 -7 -19 -1 -4 5 -24 8
-46 7 -22 -2 -37 1 -34 5 8 13 -10 11 -24 -3 -8 -8 -15 -8 -26 2 -9 7 -26 10
-40 6 -15 -4 -26 -1 -29 7 -3 7 -6 4 -6 -6 -1 -10 -5 -16 -10 -13 -5 4 -11 2
-13 -2 -1 -5 -15 -12 -31 -16 -20 -5 -29 -2 -33 9 -6 14 -8 14 -24 0 -17 -16
-19 -15 -31 6 -10 19 -13 20 -23 8 -12 -16 -65 -19 -68 -4 0 6 -2 17 -2 25 -1
8 -9 14 -19 12 -9 -2 -17 2 -17 9 0 21 -43 50 -67 45 -28 -8 -38 8 -17 28 8 9
17 16 20 16 8 0 4 -9 -12 -24 -8 -9 -11 -16 -5 -16 5 0 12 4 15 9 3 5 14 7 24
5 20 -6 48 42 28 50 -6 2 -1 5 12 5 19 1 21 -3 16 -25 -5 -19 -4 -25 5 -20 6
4 11 1 11 -6 0 -7 5 -5 11 6 7 11 8 21 2 25 -6 3 -13 18 -16 33 -4 14 -15 29
-25 31 -13 4 -12 5 5 6 16 1 20 6 16 24 -4 20 -2 20 20 -7 17 -19 27 -24 32
-16 8 13 82 4 104 -14 12 -9 13 -8 8 7 -5 14 -3 16 9 9 17 -9 92 6 115 24 19
14 81 39 98 39 8 0 19 9 25 20 6 11 12 22 14 25 2 2 7 -2 12 -10 7 -11 10 -8
15 13 4 15 12 27 18 27 6 0 7 3 4 6 -4 4 -13 2 -21 -5 -12 -10 -15 -5 -21 26
-6 35 -50 101 -61 91 -2 -3 3 -19 12 -36 8 -18 12 -36 9 -42 -4 -6 -1 -9 7 -8
8 2 12 -4 10 -17 -5 -27 -9 -30 -26 -16 -11 9 -15 8 -20 -5 -3 -8 -12 -14 -19
-11 -6 2 -34 -2 -62 -9 -37 -10 -46 -10 -34 -1 13 10 5 12 -42 10 -54 -2 -59
0 -59 20 -1 21 -1 21 -13 -3 -13 -27 -40 -40 -31 -15 5 11 2 13 -10 9 -9 -3
-16 -11 -16 -17 0 -7 -4 -7 -12 1 -9 9 -10 15 -2 20 15 10 37 52 26 52 -4 0
-13 -5 -19 -11 -7 -7 -12 -6 -16 5 -4 9 -1 16 5 16 6 0 17 8 24 18 7 9 18 17
26 17 7 1 12 6 10 13 -1 7 8 13 20 13 17 1 19 2 6 6 -11 3 -18 14 -18 30 0 20
4 24 20 20 30 -8 33 8 5 23 -25 13 -35 40 -15 40 20 0 9 21 -15 30 -25 10 -32
24 -16 34 16 10 0 46 -20 46 -14 0 -19 7 -19 26 0 14 4 23 10 19 6 -3 10 -1
10 4 0 6 -4 11 -10 11 -5 0 -10 5 -10 10 0 6 9 10 20 10 14 0 20 7 20 23 0 12
6 34 14 49 13 25 13 27 -7 30 -13 2 -21 9 -19 18 2 8 4 23 5 32 1 10 6 18 13
18 7 0 9 -10 6 -25 -4 -25 11 -35 23 -14 4 6 13 8 21 5 10 -4 14 3 14 24 0 17
5 30 10 30 6 0 10 -7 10 -15 0 -8 7 -15 15 -15 8 0 15 -9 15 -20 0 -11 5 -20
12 -20 9 0 9 -3 1 -11 -6 -6 -9 -17 -7 -24 3 -6 -5 -17 -18 -24 l-23 -12 23 5
c23 4 30 -8 11 -20 -7 -4 -2 -15 16 -30 14 -12 26 -31 25 -41 -6 -49 1 -70 25
-81 24 -11 35 -42 15 -42 -5 0 -10 -5 -10 -11 0 -6 7 -8 16 -5 20 8 44 -10 44
-34 0 -25 28 -20 34 6 4 15 11 21 21 18 18 -7 20 -24 2 -24 -7 0 -13 -9 -13
-20 0 -25 12 -26 25 -2 9 14 10 13 11 -10 0 -16 3 -28 8 -28 4 0 23 -14 42
-32 33 -30 70 -44 70 -26 0 4 8 8 19 8 14 0 17 -6 13 -25 -4 -21 0 -25 19 -25
18 0 20 3 11 12 -24 24 -14 37 21 27 222 -68 331 -82 431 -54 73 21 164 60
188 81 9 9 21 13 27 9 7 -3 8 0 5 9 -4 11 0 16 10 16 9 0 16 5 16 10 0 6 16
34 36 63 27 40 34 46 28 25 -4 -18 -2 -28 5 -28 6 0 11 5 11 10 0 6 6 10 13
10 7 0 28 16 47 37 l35 36 -28 -5 c-22 -4 -27 -2 -23 9 4 8 9 32 12 54 4 21
10 39 14 39 4 0 12 21 17 48 10 52 -6 129 -26 125 -14 -4 -15 14 0 19 6 2 -13
23 -41 47 -29 24 -57 57 -62 72 -5 16 -16 29 -23 29 -7 0 -18 7 -26 16 -12 14
-14 14 -26 -2 -12 -16 -13 -16 -13 -1 0 10 -8 17 -20 17 -13 0 -18 5 -14 15 4
8 1 15 -5 15 -6 0 -11 -4 -11 -10 0 -5 -4 -10 -10 -10 -5 0 -7 7 -4 15 4 10
-1 13 -22 12 -16 -1 -29 3 -29 10 0 15 -15 30 -15 15 0 -7 -9 -12 -21 -12 -11
0 -18 4 -15 9 4 5 -3 7 -13 4 -10 -3 -31 3 -46 13 -23 15 -28 15 -36 3 -7 -11
-9 -10 -10 6 l0 20 -9 -20 c-5 -11 -9 -15 -9 -8 -1 8 -19 11 -55 10 -30 -1
-52 -6 -48 -11 3 -5 -8 -6 -26 -3 -19 4 -32 2 -32 -3 0 -14 -38 -12 -42 1 -3
9 -10 9 -26 0 -18 -10 -22 -9 -22 4 0 16 -15 20 -24 6 -7 -10 -31 -9 -42 1 -6
7 -37 -7 -66 -30 -9 -8 -22 -11 -27 -7 -6 3 -11 1 -11 -5 0 -6 -4 -8 -10 -5
-5 3 -10 -3 -10 -14 0 -13 -5 -19 -14 -15 -7 3 -16 -2 -19 -10 -4 -9 -24 -23
-47 -32 -22 -9 -40 -21 -40 -26 0 -28 -65 -56 -74 -32 -10 26 -27 15 -20 -13
7 -25 6 -27 -9 -15 -9 8 -20 11 -26 8 -5 -3 -11 1 -14 9 -4 9 -1 12 9 8 12 -4
14 0 9 19 -7 28 25 64 47 53 7 -3 4 1 -6 9 -18 14 -21 13 -48 -15 -16 -16 -33
-27 -38 -24 -6 4 -10 1 -10 -4 0 -6 5 -11 11 -11 8 0 9 -4 0 -13 -6 -8 -9 -17
-6 -20 3 -4 2 -4 -2 -1 -8 6 -9 11 -12 39 -2 23 -21 18 -21 -5 0 -14 -7 -20
-22 -20 -20 1 -21 2 -6 11 12 6 16 21 15 48 -1 29 -4 35 -13 27 -7 -6 -9 -15
-6 -20 3 -5 0 -6 -6 -2 -7 4 -12 16 -12 27 0 12 -7 19 -20 19 -22 0 -28 -35
-7 -43 7 -3 5 -6 -5 -6 -10 -1 -18 -8 -18 -16 0 -8 -6 -15 -12 -15 -8 -1 -6
-6 5 -14 10 -8 14 -17 9 -20 -15 -9 -41 4 -36 18 3 7 -7 18 -20 24 -17 7 -24
17 -20 27 5 11 0 15 -17 15 -19 0 -21 -2 -9 -10 10 -7 11 -10 2 -10 -7 0 -17
11 -22 25 -10 26 -30 34 -30 13 0 -7 -5 -5 -11 5 -5 9 -18 17 -29 17 -10 0
-26 7 -35 17 -14 14 -18 14 -26 2 -5 -8 -9 -9 -9 -4 0 6 -8 11 -17 11 -10 0
-27 3 -39 7 -15 5 -29 -1 -52 -23 -18 -17 -32 -35 -32 -40 0 -17 -18 -11 -23
8 -4 13 -5 12 -6 -5 -1 -17 -6 -20 -23 -16 -19 4 -21 3 -8 -7 12 -10 12 -11
-5 -4 -11 4 -28 7 -37 8 -9 0 -16 3 -16 6 2 18 -4 23 -11 11 -8 -12 -12 -13
-25 -2 -14 12 -19 11 -34 -6 -9 -11 -27 -19 -39 -18 -13 1 -23 -3 -23 -9 0 -6
-5 -4 -10 4 -8 13 -10 12 -10 -4 0 -16 -5 -18 -40 -12 -27 4 -40 3 -40 -5 0
-8 -5 -7 -16 2 -11 9 -17 10 -23 1 -9 -14 -40 -9 -52 9 -7 12 -9 11 -9 -3 0
-21 -33 -32 -87 -29 -27 1 -43 -2 -43 -10 0 -8 -4 -8 -13 -1 -9 8 -20 6 -40
-7 -17 -11 -41 -16 -67 -14 -23 2 -40 -1 -40 -8 0 -5 -5 -7 -12 -3 -8 5 -9 2
-5 -10 6 -16 2 -18 -28 -14 -28 3 -35 1 -35 -13 0 -26 -46 -30 -58 -5 -10 21
-11 20 -11 -3 -1 -21 -3 -22 -18 -10 -15 12 -16 12 -10 -3 4 -12 2 -15 -9 -11
-10 4 -17 -2 -21 -16 -3 -11 -10 -18 -15 -15 -5 3 -12 -3 -15 -15 -3 -12 -13
-21 -23 -21 -13 0 -17 -6 -13 -20 4 -14 0 -20 -11 -20 -9 0 -16 -4 -16 -10 0
-5 -7 -10 -15 -10 -8 0 -15 -7 -15 -15 0 -8 -4 -15 -10 -15 -29 0 75 159 170
258 39 42 49 62 30 62 -5 0 -10 -7 -10 -15 0 -8 -9 -15 -20 -15 -11 0 -23 -6
-26 -14 -3 -8 -15 -11 -29 -8 -15 3 -29 -3 -41 -17 -10 -12 -27 -21 -37 -21
-10 0 -26 -4 -36 -10 -14 -7 -23 -5 -36 10 -19 21 -41 28 -30 9 4 -6 -2 -5
-14 3 -12 7 -21 16 -21 19 0 4 -11 6 -25 5 -31 -1 -27 -17 8 -34 31 -15 35
-32 8 -32 -11 0 -27 -3 -35 -6 -12 -5 -15 -2 -10 10 4 9 1 16 -6 16 -7 0 -21
10 -31 22 -23 26 -35 18 -19 -13 12 -21 11 -22 -24 -16 -38 6 -48 -5 -18 -22
15 -9 15 -12 2 -20 -8 -6 -25 -8 -37 -4 -20 4 -23 1 -25 -28 -3 -63 -4 -68
-10 -75 -4 -3 -10 6 -14 20 -8 33 -42 54 -55 35 -5 -8 -7 -22 -5 -31 2 -10 0
-21 -5 -24 -5 -3 -9 -14 -9 -26 0 -11 -8 -22 -20 -25 -11 -3 -17 -10 -13 -16
4 -6 0 -8 -10 -4 -11 4 -17 1 -17 -8 0 -12 -3 -12 -18 3 -11 10 -17 28 -15 44
1 15 -2 30 -7 33 -5 3 -7 12 -3 20 3 8 1 15 -5 15 -6 0 -17 3 -26 6 -12 4 -16
0 -16 -15 0 -12 -6 -21 -15 -21 -8 0 -15 -4 -15 -10 0 -5 7 -10 16 -10 9 0 14
-6 11 -12 -5 -15 -48 -11 -60 6 -6 7 -7 4 -3 -6 9 -28 -9 -21 -46 17 -18 20
-38 33 -44 31 -7 -3 -10 3 -7 15 4 14 0 19 -16 19 -11 0 -21 5 -21 10 0 6 -8
10 -17 10 -10 0 -31 7 -47 15 -35 18 -31 18 -52 -2 -15 -16 -17 -16 -31 3 -17
23 -49 26 -85 8 -30 -16 -41 -18 -34 -6 2 4 -4 8 -15 8 -10 0 -19 -3 -19 -7 0
-4 -19 -7 -42 -7 -24 -1 -61 -3 -83 -5 -22 -2 -44 -1 -50 2 -15 8 -75 7 -75
-1 0 -5 -7 -8 -15 -8 -8 0 -15 4 -15 10 0 5 -10 10 -22 9 -13 0 -36 2 -53 5
-16 3 -58 7 -92 10 -34 2 -66 7 -72 10 -8 5 -11 -109 -11 -399 0 -256 4 -404
10 -400 5 3 6 13 3 22 -4 11 -2 14 8 11 8 -2 15 -14 17 -26 2 -14 11 -22 24
-22 17 0 19 -5 14 -27 -5 -26 -5 -27 6 -5 12 25 38 30 38 8 0 -9 9 -14 20 -13
22 1 28 27 8 28 -7 0 -3 5 10 11 12 6 22 18 22 27 -1 15 -2 15 -13 0 -7 -9
-27 -20 -46 -24 l-34 -7 34 30 c22 20 41 28 56 26 13 -3 23 0 23 5 0 5 9 7 20
4 11 -3 20 -10 20 -15 0 -6 -9 -8 -20 -5 -12 3 -20 0 -20 -8 0 -13 104 -30
121 -20 5 4 16 0 24 -8 13 -13 12 -16 -2 -21 -14 -6 -14 -8 4 -21 12 -8 30
-16 41 -18 22 -3 72 -54 72 -73 0 -7 -5 -16 -12 -20 -7 -5 -9 -1 -6 13 4 17 1
20 -17 19 -15 -1 -20 -6 -18 -17 4 -13 -1 -16 -24 -12 -28 4 -28 4 -8 -14 23
-19 42 -59 24 -48 -16 11 -41 -15 -29 -30 16 -19 -40 -37 -66 -22 -10 7 -30
13 -44 14 -44 5 -50 6 -50 14 0 4 -25 13 -55 20 -36 8 -57 18 -60 29 -4 14
-14 17 -42 13 -23 -3 -38 0 -44 9 -5 7 -9 -364 -9 -839 l0 -853 2120 0 c1166
0 2120 2 2120 5 0 2 -9 20 -20 40 -11 20 -20 42 -20 50 0 8 23 31 50 51 28 20
50 40 50 46 0 5 10 9 23 8 37 -3 48 -1 42 10 -4 6 -1 18 7 27 11 15 10 16 -9
11 -28 -7 -28 -4 -3 32 14 19 18 37 14 57 -5 25 0 36 33 69 21 21 44 52 51 67
6 15 17 25 22 22 6 -3 10 -1 10 4 0 6 9 11 19 11 11 0 27 3 36 6 13 6 14 9 3
16 -10 7 -5 15 21 37 18 16 30 34 27 40 -4 5 10 22 31 38 20 15 49 40 64 55
15 15 49 39 76 52 27 14 58 34 68 46 10 12 35 28 54 37 20 9 50 27 66 39 29
22 112 62 241 118 34 14 75 26 91 26 16 0 56 10 88 21 49 17 89 22 215 25 85
1 165 6 178 10 12 3 22 2 22 -4 0 -15 70 -22 91 -9 16 9 21 9 28 -1 11 -18 52
-39 93 -47 61 -12 211 -57 252 -76 23 -10 53 -19 67 -19 14 0 34 -9 44 -20 27
-30 35 -25 35 23 0 33 -6 49 -25 67 -14 13 -25 29 -25 37 0 17 -27 17 -33 1
-3 -7 -11 2 -18 20 -8 17 -20 32 -29 32 -23 0 -40 20 -40 47 0 27 -8 29 -26 6
-8 -11 -13 -13 -14 -5 0 6 -9 12 -20 12 -13 0 -20 7 -20 19 0 22 -18 37 -40
33 -11 -2 -16 6 -15 25 0 20 -4 27 -16 25 -9 -1 -19 5 -23 13 -3 9 -11 13 -17
9 -6 -3 -14 -3 -18 2 -3 5 -21 17 -39 26 -28 15 -32 15 -32 2 0 -8 4 -13 9
-10 5 3 11 -4 14 -15 4 -15 2 -19 -10 -15 -8 3 -23 6 -33 6 -10 0 -24 14 -34
35 -19 40 -31 46 -22 11 4 -17 1 -26 -10 -30 -23 -9 -26 -8 -22 12 1 9 -1 23
-6 30 -6 11 -12 10 -27 -4 -14 -12 -22 -14 -32 -6 -7 6 -22 11 -32 11 -11 1
-46 3 -78 5 -49 4 -61 1 -77 -17 l-20 -21 -22 20 c-38 34 -115 21 -103 -17 7
-21 6 -21 -74 -19 -46 1 -53 -1 -48 -15 5 -10 -1 -19 -18 -27 -14 -6 -25 -16
-25 -21 0 -5 -7 -4 -16 4 -11 9 -17 10 -22 1 -10 -14 -60 -23 -67 -11 -4 5
-13 9 -21 9 -8 0 -13 -4 -10 -8 6 -11 -30 -42 -48 -42 -7 0 -19 -7 -26 -15 -7
-8 -17 -15 -23 -15 -5 0 -20 -10 -32 -22 -42 -43 -74 -66 -100 -72 -14 -4 -31
-18 -37 -31 -6 -14 -19 -27 -30 -30 -10 -4 -18 -11 -18 -17 0 -5 -7 -8 -14 -5
-9 4 -17 -1 -20 -11 -9 -26 -189 -182 -249 -214 -29 -16 -69 -42 -89 -58 -20
-17 -43 -30 -51 -30 -21 0 -106 -30 -174 -61 -34 -16 -82 -34 -108 -40 -25 -6
-48 -15 -51 -20 -3 -5 -13 -9 -22 -9 -19 0 -83 -30 -108 -51 -8 -7 -22 -26
-30 -42 -14 -26 -14 -31 2 -55 33 -49 29 -64 -23 -100 -20 -15 -34 -19 -38
-12 -5 8 -11 8 -20 0 -7 -6 -17 -10 -21 -9 -11 3 -38 -7 -80 -28 -18 -8 -45
-16 -60 -16 -16 -1 -32 -5 -35 -10 -7 -10 -39 2 -39 14 0 6 -9 5 -20 -1 -16
-8 -28 -5 -62 17 -24 15 -49 26 -55 25 -7 -2 -13 1 -13 7 0 5 -24 9 -52 9 -29
0 -57 1 -63 3 -21 6 -103 -24 -200 -72 -57 -28 -114 -49 -132 -49 -39 0 -81
38 -90 82 -3 16 -12 32 -19 35 -8 3 -14 11 -14 19 0 36 -76 35 -120 -1 -43
-37 -98 -57 -150 -58 -79 0 -130 6 -130 15 0 5 -10 22 -22 38 -12 16 -19 33
-15 36 16 16 -30 33 -66 25 -20 -5 -38 -6 -41 -3 -3 2 -12 -1 -20 -7 -10 -9
-20 -10 -32 -3 -12 7 -27 7 -43 0 -17 -6 -27 -6 -29 1 -7 22 -24 10 -20 -14 3
-13 0 -26 -6 -28 -8 -3 -7 -12 2 -31 7 -15 9 -39 6 -53 -6 -24 -10 -25 -53
-20 -65 8 -77 11 -94 25 -8 7 -21 10 -30 6 -8 -3 -18 -1 -22 5 -3 6 -15 11
-25 11 -10 0 -27 10 -37 23 -10 12 -37 35 -61 50 -33 22 -47 26 -57 17 -10 -8
-15 -8 -20 0 -5 8 -11 8 -19 1 -7 -6 -16 -8 -19 -5 -4 4 -18 -1 -32 -10 -20
-13 -30 -14 -48 -5 -26 14 -77 66 -77 80 0 5 -6 9 -14 9 -7 0 -19 7 -26 15 -7
8 -21 15 -31 15 -28 0 -69 22 -69 37 0 7 -6 13 -14 13 -7 0 -18 6 -24 13 -7 8
-40 14 -88 16 -45 1 -104 11 -145 24 -53 17 -87 22 -142 20 -39 -2 -85 -4
-102 -4 -16 -1 -37 -3 -45 -6 -22 -9 -42 -14 -72 -20 -15 -3 -30 -13 -33 -22
-5 -17 -69 -51 -94 -51 -8 0 -11 -7 -7 -15 3 -9 0 -15 -9 -15 -8 0 -20 -12
-27 -27 -12 -25 -17 -27 -63 -25 -29 2 -61 -4 -77 -12 -15 -8 -43 -13 -62 -11
-21 2 -37 -2 -40 -10 -2 -7 -15 -11 -30 -8 -14 3 -23 9 -21 13 3 5 1 11 -5 15
-5 3 -10 28 -10 55 0 44 4 53 52 107 29 32 73 76 97 98 24 22 54 64 68 93 21
47 62 95 129 154 10 9 32 30 49 48 21 22 31 27 35 18 6 -16 75 -24 84 -10 3 6
14 8 25 5 22 -6 53 23 49 46 -3 12 -14 16 -43 14 -36 -2 -37 -1 -10 5 28 7 29
8 10 20 l-20 11 20 1 c19 1 19 1 2 14 -16 13 -16 15 10 31 24 16 25 19 10 30
-9 7 -17 16 -17 20 0 4 6 3 13 -4 10 -8 17 -7 25 1 17 17 15 31 -3 24 -8 -3
-15 -2 -15 3 0 11 31 37 39 33 3 -2 7 1 9 7 2 6 -2 11 -9 11 -29 0 11 22 43
24 27 1 34 6 36 26 5 43 23 90 32 85 4 -3 6 -15 3 -28 l-6 -22 22 24 c11 13
21 31 22 40 0 13 2 12 8 -2 4 -10 10 -18 14 -18 4 1 8 1 10 0 1 0 15 -3 31 -5
24 -4 27 -3 18 9 -13 16 2 37 28 37 12 1 11 4 -5 17 -20 15 -20 15 2 10 14 -3
24 1 27 10 4 8 13 13 21 9 8 -3 15 -1 15 4 0 6 -8 10 -17 10 -16 1 -16 2 1 15
15 11 16 15 5 16 -8 0 0 7 16 14 l30 14 -32 1 c-17 0 -34 4 -37 9 -9 14 4 41
20 41 8 0 14 9 14 20 0 23 15 27 24 5 3 -8 10 -15 15 -15 6 0 8 6 5 14 -6 16
33 29 43 13 4 -7 9 -3 13 8 6 17 18 19 90 21 53 1 85 6 90 14 6 9 9 9 13 -1 4
-9 8 -10 14 -4 9 12 31 15 135 19 58 2 85 -2 114 -16 24 -11 40 -15 42 -8 2 5
8 10 14 10 6 0 8 -6 5 -14 -4 -9 4 -13 26 -14 19 0 38 -9 49 -21 9 -12 24 -21
33 -21 9 0 29 -6 43 -14 32 -17 104 -50 115 -52 4 -1 12 -2 18 -3 5 0 7 -5 4
-11 -3 -6 4 -10 17 -10 13 0 28 -4 34 -9 16 -16 217 -121 231 -121 7 0 13 -4
13 -10 0 -5 9 -10 19 -10 11 0 21 -4 23 -8 2 -4 28 -21 58 -36 30 -16 57 -31
60 -35 7 -9 45 -30 115 -63 121 -59 239 -126 243 -139 2 -5 18 -17 35 -26 18
-9 50 -30 72 -48 22 -18 58 -42 80 -54 22 -12 58 -33 80 -46 22 -13 50 -28 62
-34 11 -5 24 -14 27 -20 4 -6 14 -7 22 -4 9 3 130 120 270 259 139 139 269
264 288 276 19 13 73 54 121 91 48 38 98 73 111 79 13 6 24 14 24 18 0 4 23
20 52 35 29 16 80 56 115 89 34 34 80 75 100 93 21 17 49 41 62 52 13 11 33
23 45 27 11 4 34 17 49 30 16 13 33 24 39 24 17 0 147 117 140 126 -4 4 1 4
11 1 19 -7 78 42 90 74 4 12 13 15 31 12 15 -3 26 -1 26 5 0 6 16 16 35 23 19
7 35 16 35 20 0 11 89 39 122 39 15 0 28 4 28 8 0 5 18 14 41 21 38 11 41 15
37 42 -4 22 1 33 19 44 13 9 22 11 21 6 -2 -5 2 -8 7 -8 6 1 9 8 7 17 -2 11 2
10 13 -4 14 -19 15 -18 15 12 0 18 4 32 10 32 5 0 9 10 7 23 -2 19 2 22 28 19
22 -2 26 0 16 7 -8 5 -16 17 -17 26 -2 13 0 14 13 4 10 -9 17 -9 21 -2 11 17
44 12 37 -6 -3 -9 4 -5 16 9 21 24 21 24 36 5 14 -19 15 -18 11 13 -3 18 -1
35 3 37 4 3 6 13 4 23 -1 9 0 12 2 5 2 -7 12 -9 21 -7 13 5 14 4 3 -4 -7 -5
-15 -21 -16 -34 -2 -18 2 -24 17 -24 17 0 17 2 4 11 -12 9 -13 14 -4 23 17 17
28 15 22 -6 -5 -14 -4 -14 4 -3 7 10 7 21 1 34 -10 17 -8 17 11 7 15 -8 20 -8
16 -1 -4 6 -3 11 3 11 5 0 12 8 14 18 3 9 4 4 4 -13 -1 -16 -8 -35 -16 -42
-13 -9 -10 -10 12 -6 18 4 29 13 33 29 4 16 11 21 22 16 10 -3 12 -7 4 -10
-21 -7 -13 -19 13 -19 14 0 25 3 25 8 0 5 -4 9 -10 9 -5 0 -10 5 -10 11 0 7 9
9 24 5 20 -5 23 -3 19 14 -4 16 -2 19 11 14 9 -3 16 -10 16 -15 0 -5 5 -9 11
-9 6 0 7 5 2 13 -12 19 -12 36 -1 44 7 3 8 1 4 -6 -4 -6 0 -14 9 -17 8 -4 15
-11 14 -18 -3 -27 2 -36 22 -36 11 0 18 -4 14 -9 -3 -5 -2 -12 3 -15 4 -2 14
5 21 16 11 18 11 20 -2 15 -8 -3 -23 1 -34 8 -14 11 -15 16 -6 26 10 10 14 9
19 -4 3 -9 10 -17 16 -17 5 0 7 4 4 9 -3 5 7 11 22 14 28 5 47 -2 25 -10 -7
-3 -13 -12 -13 -20 0 -10 4 -13 13 -6 6 4 38 8 69 8 54 -1 56 0 41 17 -13 15
-14 18 -2 18 8 0 21 -6 28 -12 10 -11 11 -10 6 5 -4 9 -11 17 -16 17 -5 0 -9
5 -9 10 0 10 40 -8 51 -23 8 -11 21 22 13 34 -3 5 -10 6 -16 3 -7 -4 -8 -2 -4
4 4 6 13 9 21 5 11 -3 15 2 16 18 1 22 2 22 7 4 13 -38 38 -28 33 13 -3 22 7
12 18 -18 6 -18 6 -28 1 -25 -6 4 -10 -7 -10 -24 0 -17 -5 -31 -11 -31 -6 0
-9 -7 -5 -15 3 -8 2 -15 -3 -15 -5 0 -11 -10 -15 -23 -3 -12 -14 -32 -26 -44
-11 -12 -20 -27 -20 -32 0 -5 -6 -16 -13 -23 -6 -7 -25 -33 -41 -57 -35 -54
-173 -191 -192 -191 -3 0 -20 -14 -37 -30 -18 -17 -39 -37 -48 -45 -9 -8 -21
-15 -27 -15 -6 0 -20 -13 -32 -29 l-20 -30 36 -28 c21 -15 58 -46 83 -69 25
-23 51 -43 58 -45 6 -2 66 -56 133 -119 125 -119 197 -201 265 -305 21 -33 49
-76 62 -96 13 -19 23 -40 23 -46 0 -6 18 -49 40 -94 l40 -83 0 1267 0 1267
-3200 0 -3200 0 0 -416z m5040 -54 c0 -5 -5 -10 -11 -10 -5 0 -7 5 -4 10 3 6
8 10 11 10 2 0 4 -4 4 -10z m-3920 -273 c0 -19 -1 -19 -20 -2 -21 19 -18 37 5
28 8 -3 15 -14 15 -26z m2695 -78 c4 -6 13 -8 21 -5 27 10 14 -14 -13 -26 -34
-15 -67 -47 -58 -56 3 -4 24 3 46 15 28 16 39 18 39 8 0 -7 6 -16 13 -19 8 -4
7 -5 -3 -4 -31 3 -71 -14 -66 -28 3 -8 -1 -14 -9 -14 -8 0 -15 6 -15 13 0 8
-4 7 -11 -3 -8 -12 -9 -10 -4 7 6 22 -9 41 -20 23 -11 -18 -27 -10 -22 11 6
21 5 21 -21 -2 -15 -13 -28 -27 -30 -31 -2 -5 -10 -8 -18 -8 -8 0 -14 -4 -14
-9 0 -16 -38 -19 -45 -3 -5 13 -8 12 -20 -4 -11 -14 -14 -15 -14 -4 1 31 16
51 63 85 32 23 61 35 82 35 17 0 45 7 60 15 34 18 50 19 59 4z m80 1 c-3 -5
-10 -10 -16 -10 -5 0 -9 5 -9 10 0 6 7 10 16 10 8 0 12 -4 9 -10z m395 -4 c0
-3 -4 -8 -10 -11 -5 -3 -10 -1 -10 4 0 6 5 11 10 11 6 0 10 -2 10 -4z m17 -28
c-3 -8 -6 -5 -6 6 -1 11 2 17 5 13 3 -3 4 -12 1 -19z m-381 -34 c-3 -8 -11
-14 -18 -14 -9 0 -9 3 0 12 7 7 13 21 13 33 1 17 2 18 6 2 3 -10 2 -25 -1 -33z
m114 36 c0 -5 -2 -10 -4 -10 -3 0 -8 5 -11 10 -3 6 -1 10 4 10 6 0 11 -4 11
-10z m-39 -17 c13 -17 13 -17 -6 -3 -11 8 -22 16 -24 17 -2 2 0 3 6 3 6 0 17
-8 24 -17z m-2294 1 c-3 -3 -12 -4 -19 -1 -8 3 -5 6 6 6 11 1 17 -2 13 -5z
m2193 -8 c0 -3 -4 -8 -10 -11 -5 -3 -10 -1 -10 4 0 6 5 11 10 11 6 0 10 -2 10
-4z m250 -41 c5 3 10 -1 10 -10 0 -31 -35 -12 -37 20 -3 28 -2 29 7 7 5 -13
14 -20 20 -17z m-2600 -25 c0 -5 -8 -10 -17 -10 -15 0 -16 2 -3 10 19 12 20
12 20 0z m2674 -13 c-1 -9 2 -15 6 -12 4 3 13 -2 20 -10 7 -8 18 -15 26 -15
19 0 37 -37 21 -44 -6 -4 -2 -4 10 -2 15 3 20 0 16 -10 -3 -8 -11 -14 -19 -14
-19 0 -54 31 -54 48 0 8 -6 12 -15 8 -9 -3 -15 0 -15 9 0 8 -11 22 -25 31 -33
21 -32 33 3 30 18 -1 27 -7 26 -19z m1956 -21 c0 -3 -4 -8 -10 -11 -5 -3 -10
-1 -10 4 0 6 5 11 10 11 6 0 10 -2 10 -4z m-4974 -113 c-10 -10 -19 5 -10 18
6 11 8 11 12 0 2 -7 1 -15 -2 -18z m191 -5 c-3 -7 -5 -2 -5 12 0 14 2 19 5 13
2 -7 2 -19 0 -25z m2503 13 c0 -5 -20 -14 -46 -20 -58 -15 -84 -1 -29 15 49
15 75 17 75 5z m1800 -5 c0 -11 -19 -15 -25 -6 -3 5 1 10 9 10 9 0 16 -2 16
-4z m-4695 -26 c3 -5 -1 -10 -10 -10 -9 0 -13 5 -10 10 3 6 8 10 10 10 2 0 7
-4 10 -10z m2930 0 c17 -7 16 -9 -11 -9 -17 -1 -54 -8 -83 -17 -75 -22 -88
-11 -16 14 67 23 81 24 110 12z m368 -74 c17 -51 22 -102 11 -130 -13 -33 -24
-14 -24 42 0 31 -7 79 -15 106 -8 27 -15 54 -15 60 0 20 27 -29 43 -78z
m-3130 44 c-3 -11 -7 -20 -9 -20 -2 0 -4 9 -4 20 0 11 4 20 9 20 5 0 7 -9 4
-20z m2097 -20 c0 -5 -2 -10 -4 -10 -3 0 -8 5 -11 10 -3 6 -1 10 4 10 6 0 11
-4 11 -10z m2174 -14 c-3 -9 -10 -13 -16 -10 -5 3 -4 12 3 20 15 18 22 13 13
-10z m-2174 -16 c0 -5 -4 -10 -10 -10 -5 0 -10 5 -10 10 0 6 5 10 10 10 6 0
10 -4 10 -10z m734 -6 c35 -14 12 -24 -53 -24 -80 0 -133 9 -125 21 6 10 154
12 178 3z m-1704 -25 c0 -5 -23 -9 -52 -9 -31 0 -48 4 -42 9 20 19 94 19 94 0z
m15 -29 c4 -6 -12 -10 -42 -10 -26 0 -63 -4 -81 -9 -36 -11 -35 4 2 19 29 12
114 12 121 0z m2078 -10 c3 -11 1 -18 -4 -14 -5 3 -9 12 -9 20 0 20 7 17 13
-6z m927 -31 c-7 -11 -14 -18 -17 -15 -8 8 5 36 17 36 7 0 7 -6 0 -21z m-2939
-45 c17 -8 29 -17 27 -18 -8 -7 -208 7 -208 14 0 23 139 26 181 4z m2845 -71
c-10 -10 -19 5 -10 18 6 11 8 11 12 0 2 -7 1 -15 -2 -18z m-2296 -13 c0 -5 -4
-10 -10 -10 -5 0 -10 5 -10 10 0 6 5 10 10 10 6 0 10 -4 10 -10z m37 -7 c-3
-5 -10 -28 -17 -52 -10 -39 -13 -41 -24 -25 -13 17 -14 16 -20 -4 -13 -40 -43
-20 -32 22 3 13 23 31 48 44 48 24 51 25 45 15z m-107 -89 c0 -27 -15 -32 -24
-9 -7 19 3 47 15 39 5 -3 9 -16 9 -30z m-54 -25 c1 -5 2 -17 3 -26 2 -17 2
-17 12 0 5 9 17 17 24 17 8 0 15 -8 16 -17 0 -15 2 -15 9 2 5 11 9 14 9 8 1
-20 21 -15 21 5 1 16 1 16 11 -1 6 -10 7 -26 3 -35 -4 -9 -6 -20 -6 -24 1 -5
-5 -8 -13 -8 -8 0 -15 -6 -15 -13 0 -7 -9 -18 -20 -25 -11 -7 -20 -17 -20 -22
0 -13 -37 -50 -43 -43 -3 2 -8 -5 -12 -16 -3 -12 -10 -19 -15 -16 -4 3 -15 -6
-24 -20 -9 -14 -22 -25 -30 -25 -9 0 -12 -9 -9 -27 3 -19 2 -24 -5 -15 -15 22
-39 9 -113 -60 -16 -16 -34 -28 -39 -28 -6 0 -19 -9 -30 -20 -11 -11 -29 -20
-40 -20 -11 0 -23 -7 -26 -15 -4 -10 -10 -12 -18 -6 -14 11 -66 2 -66 -11 0
-10 -17 -8 -52 7 -13 5 -18 2 -18 -11 0 -15 -2 -16 -9 -5 -5 8 -14 10 -21 6
-8 -5 -11 -4 -7 2 4 6 -2 13 -13 16 -11 3 -20 0 -21 -6 0 -8 -2 -8 -6 1 -2 6
-13 12 -24 12 -13 0 -19 7 -19 22 0 17 -3 19 -12 10 -18 -18 -63 -14 -89 8
-13 10 -19 19 -14 20 6 0 11 10 12 23 0 12 -1 16 -4 10 -6 -15 -43 -17 -43 -3
0 6 5 10 11 10 8 0 8 5 -1 15 -10 12 -9 15 7 15 10 0 28 -7 40 -15 24 -17 83
-10 83 10 0 7 10 16 23 20 12 4 25 8 30 10 4 1 25 3 47 4 26 1 39 5 38 14 -2
7 6 11 19 10 14 -2 24 4 28 17 4 11 15 20 25 20 10 0 20 7 24 15 3 8 14 15 24
15 10 0 23 5 30 12 8 8 15 8 27 -2 12 -10 15 -10 15 3 0 8 12 17 28 20 19 4
29 12 29 24 0 29 -19 33 -38 9 -9 -12 -30 -23 -47 -24 -16 -1 -46 -9 -66 -17
-20 -8 -36 -12 -36 -9 0 4 -9 -1 -19 -10 -14 -13 -28 -16 -55 -11 -28 6 -37 4
-42 -9 -6 -16 -8 -16 -25 0 -14 12 -28 15 -59 10 -32 -5 -40 -3 -40 9 0 9 9
15 23 14 23 0 55 3 147 17 30 4 61 7 69 5 7 -1 10 2 6 8 -3 6 0 11 8 11 19 0
187 69 207 85 20 15 98 55 109 55 5 0 12 -11 15 -25 7 -26 30 -32 56 -14 11 8
12 12 3 16 -19 7 -16 21 5 25 19 5 26 1 28 -13z m1828 -24 c-7 -16 -24 -21
-24 -6 0 8 7 13 27 20 1 1 0 -6 -3 -14z m-2878 -50 c12 -12 14 -66 2 -59 -3 2
-9 18 -13 34 -8 34 -25 41 -19 8 5 -23 5 -23 -6 0 -5 13 -14 21 -19 18 -5 -3
-11 0 -14 7 -6 17 51 10 69 -8z m57 -48 c2 -7 26 -23 53 -36 27 -13 56 -30 64
-37 8 -7 31 -17 50 -22 19 -6 27 -11 18 -11 -10 -1 -18 -6 -18 -12 0 -5 5 -7
10 -4 6 3 10 0 10 -8 0 -10 -7 -13 -20 -10 -11 3 -20 9 -20 13 0 4 -13 6 -29
4 -30 -4 -58 17 -46 36 3 6 -3 10 -14 10 -14 0 -19 5 -15 15 7 18 -17 20 -34
3 -9 -9 -15 -9 -23 -1 -8 8 -8 13 0 17 7 5 6 15 -5 32 -14 21 -14 24 -1 24 8
0 17 -6 20 -13z m1137 -7 c0 -5 -10 -10 -22 -10 -19 0 -20 2 -8 10 19 13 30
13 30 0z m-2830 -20 c0 -5 -2 -10 -4 -10 -3 0 -8 5 -11 10 -3 6 -1 10 4 10 6
0 11 -4 11 -10z m2770 -10 c0 -5 -4 -10 -10 -10 -5 0 -10 5 -10 10 0 6 5 10
10 10 6 0 10 -4 10 -10z m-810 -11 c0 -5 -4 -8 -9 -4 -5 3 -11 -3 -13 -12 -3
-15 -5 -14 -10 5 -5 17 -2 22 13 22 10 0 19 -5 19 -11z m34 -5 c9 -23 8 -24
-13 -24 -14 0 -18 5 -14 20 6 24 19 26 27 4z m-2014 2 c0 -2 -7 -7 -16 -10 -8
-3 -12 -2 -9 4 6 10 25 14 25 6z m4360 -26 c0 -5 -7 -10 -15 -10 -8 0 -15 5
-15 10 0 6 7 10 15 10 8 0 15 -4 15 -10z m-2140 -30 c0 -5 -5 -10 -11 -10 -5
0 -7 5 -4 10 3 6 8 10 11 10 2 0 4 -4 4 -10z m-40 -30 c0 -5 -4 -10 -10 -10
-5 0 -10 5 -10 10 0 6 5 10 10 10 6 0 10 -4 10 -10z m484 -45 c-4 -8 -8 -15
-10 -15 -2 0 -4 7 -4 15 0 8 4 15 10 15 5 0 7 -7 4 -15z m59 -12 c-7 -2 -19
-2 -25 0 -7 3 -2 5 12 5 14 0 19 -2 13 -5z m-818 -12 c3 -5 -3 -16 -13 -23
-11 -7 -20 -17 -20 -23 0 -5 -6 -11 -13 -14 -8 -2 -10 2 -4 15 4 11 10 27 12
37 6 18 28 23 38 8z m895 -22 c0 -18 -18 -9 -23 12 -4 16 -3 18 9 8 8 -6 14
-15 14 -20z m-197 -1 c-4 -22 -4 -22 12 2 15 23 15 24 10 3 -8 -29 9 -30 28
-2 16 22 27 14 23 -17 -2 -16 -11 -19 -51 -19 -30 0 -50 -5 -52 -12 -6 -16
-23 -17 -23 -2 0 12 42 68 52 68 3 1 4 -9 1 -21z m-776 -4 c-3 -3 -12 -4 -19
-1 -8 3 -5 6 6 6 11 1 17 -2 13 -5z m-1497 -14 c0 -5 -5 -10 -11 -10 -5 0 -7
5 -4 10 3 6 8 10 11 10 2 0 4 -4 4 -10z m1605 -10 c-11 -5 -27 -9 -35 -9 -9 0
-8 4 5 9 11 5 27 9 35 9 9 0 8 -4 -5 -9z m602 -12 c-3 -8 -6 -5 -6 6 -1 11 2
17 5 13 3 -3 4 -12 1 -19z m-57 -18 c-24 -15 -36 -11 -14 4 10 8 21 12 24 10
2 -3 -2 -9 -10 -14z m-2184 -55 c-3 -8 -10 -15 -15 -15 -5 0 -4 11 2 25 12 25
23 16 13 -10z m1761 29 c-3 -3 -12 -4 -19 -1 -8 3 -5 6 6 6 11 1 17 -2 13 -5z
m-1727 -19 c0 -8 -4 -15 -10 -15 -5 0 -10 7 -10 15 0 8 5 15 10 15 6 0 10 -7
10 -15z m35 5 c3 -5 1 -10 -4 -10 -6 0 -11 5 -11 10 0 6 2 10 4 10 3 0 8 -4
11 -10z m765 -150 c-7 -77 -6 -74 -20 -78 -8 -3 -10 3 -5 19 4 13 4 21 0 17
-4 -4 -14 -1 -22 7 -8 8 -21 15 -29 15 -14 0 -14 -2 0 -15 8 -8 19 -15 25 -15
6 0 11 -4 11 -10 0 -5 -5 -10 -11 -10 -7 0 -19 -8 -28 -17 -24 -27 -45 -28
-31 -3 6 11 15 20 20 20 16 0 11 17 -6 24 -9 3 -12 2 -8 -5 3 -6 -4 -20 -16
-31 -18 -17 -24 -18 -31 -7 -5 8 -9 18 -9 22 0 5 -7 1 -16 -7 -21 -22 -27 -20
-19 5 6 18 4 20 -17 14 -23 -6 -22 -6 4 18 19 18 23 28 15 36 -16 16 55 15 72
-1 11 -11 12 -7 7 18 -6 28 -5 30 16 28 13 -1 25 -3 28 -4 3 -1 9 -2 13 -1 5
1 6 -3 3 -8 -3 -5 -2 -20 3 -33 6 -12 10 -17 10 -10 1 6 6 12 12 12 6 0 8 -7
5 -16 -3 -8 -2 -12 4 -9 14 9 12 45 -2 46 -10 0 -10 2 0 6 6 2 12 11 12 19 0
8 4 14 8 14 4 0 5 -27 2 -60z m-54 -117 c-10 -10 -19 5 -10 18 6 11 8 11 12 0
2 -7 1 -15 -2 -18z m-31 -13 c3 -5 1 -10 -4 -10 -6 0 -11 5 -11 10 0 6 2 10 4
10 3 0 8 -4 11 -10z m-115 -111 c0 -18 -2 -19 -15 -9 -15 12 -12 30 6 30 5 0
9 -10 9 -21z"/>
<path d="M3788 2763 c7 -3 16 -2 19 1 4 3 -2 6 -13 5 -11 0 -14 -3 -6 -6z"/>
<path d="M2673 2035 c-13 -15 -7 -45 9 -45 5 0 6 5 3 10 -3 6 0 10 8 10 10 0
13 7 10 20 -6 23 -13 25 -30 5z"/>
<path d="M2643 2001 c1 -14 9 -26 17 -28 10 -3 11 -2 4 4 -7 4 -14 17 -17 28
-5 16 -5 15 -4 -4z"/>
<path d="M2832 1986 c2 -15 8 -26 13 -26 15 0 12 43 -3 48 -10 3 -13 -4 -10
-22z"/>
<path d="M2376 1814 c-8 -21 -3 -26 17 -18 9 3 13 12 10 20 -7 19 -19 18 -27
-2z"/>
<path d="M2235 1760 c-3 -5 3 -10 14 -10 11 0 23 5 26 10 3 6 -3 10 -14 10
-11 0 -23 -4 -26 -10z"/>
<path d="M2185 1730 c-3 -5 -1 -10 4 -10 6 0 11 5 11 10 0 6 -2 10 -4 10 -3 0
-8 -4 -11 -10z"/>
<path d="M2093 1663 c9 -2 23 -2 30 0 6 3 -1 5 -18 5 -16 0 -22 -2 -12 -5z"/>
<path d="M1145 1480 c-3 -5 -1 -10 4 -10 6 0 11 5 11 10 0 6 -2 10 -4 10 -3 0
-8 -4 -11 -10z"/>
<path d="M2695 2900 c3 -5 8 -10 11 -10 2 0 4 5 4 10 0 6 -5 10 -11 10 -5 0
-7 -4 -4 -10z"/>
<path d="M1485 2850 c3 -5 11 -10 16 -10 6 0 7 5 4 10 -3 6 -11 10 -16 10 -6
0 -7 -4 -4 -10z"/>
<path d="M3300 2850 c0 -5 5 -10 11 -10 5 0 7 5 4 10 -3 6 -8 10 -11 10 -2 0
-4 -4 -4 -10z"/>
<path d="M3240 2820 c0 -5 5 -10 11 -10 5 0 7 5 4 10 -3 6 -8 10 -11 10 -2 0
-4 -4 -4 -10z"/>
<path d="M1450 2812 c0 -21 37 -49 65 -50 17 0 37 -2 45 -4 7 -2 16 5 18 16 3
13 0 16 -10 10 -20 -13 -61 -4 -76 17 -13 19 -42 26 -42 11z"/>
<path d="M1592 2750 c0 -14 2 -19 5 -12 2 6 2 18 0 25 -3 6 -5 1 -5 -13z"/>
<path d="M2000 2730 c0 -5 7 -7 15 -4 8 4 15 8 15 10 0 2 -7 4 -15 4 -8 0 -15
-4 -15 -10z"/>
<path d="M971 2554 c0 -11 3 -14 6 -6 3 7 2 16 -1 19 -3 4 -6 -2 -5 -13z"/>
<path d="M1150 2554 c0 -8 5 -12 10 -9 6 3 10 10 10 16 0 5 -4 9 -10 9 -5 0
-10 -7 -10 -16z"/>
<path d="M1122 2515 c0 -16 2 -22 5 -12 2 9 2 23 0 30 -3 6 -5 -1 -5 -18z"/>
<path d="M3095 2520 c-3 -5 -1 -10 4 -10 6 0 11 5 11 10 0 6 -2 10 -4 10 -3 0
-8 -4 -11 -10z"/>
<path d="M5915 2460 c-3 -5 -1 -10 4 -10 6 0 11 5 11 10 0 6 -2 10 -4 10 -3 0
-8 -4 -11 -10z"/>
<path d="M3045 2400 c-3 -5 -2 -10 4 -10 5 0 13 5 16 10 3 6 2 10 -4 10 -5 0
-13 -4 -16 -10z"/>
<path d="M4446 2401 c-4 -5 3 -7 14 -4 23 6 26 13 6 13 -8 0 -17 -4 -20 -9z"/>
<path d="M5470 2375 c0 -8 5 -15 10 -15 6 0 10 7 10 15 0 8 -4 15 -10 15 -5 0
-10 -7 -10 -15z"/>
<path d="M5447 2339 c-4 -16 -3 -18 9 -8 7 6 11 15 8 20 -8 13 -11 11 -17 -12z"/>
<path d="M5398 2323 c7 -3 16 -2 19 1 4 3 -2 6 -13 5 -11 0 -14 -3 -6 -6z"/>
<path d="M3270 2231 c0 -14 5 -19 15 -14 17 6 15 25 -3 31 -7 2 -12 -5 -12
-17z"/>
<path d="M4343 2218 c-6 -7 -13 -29 -17 -49 -3 -20 -18 -49 -31 -65 -14 -16
-25 -33 -25 -37 0 -4 -9 -17 -20 -29 -11 -12 -20 -19 -20 -15 0 4 -10 2 -22
-5 -13 -6 -33 -11 -45 -9 -16 2 -23 -3 -23 -14 0 -10 -4 -13 -12 -8 -18 11
-88 12 -88 2 0 -5 -9 -4 -20 3 -17 11 -22 10 -31 -2 -7 -11 -12 -11 -15 -3 -3
7 -18 9 -40 6 -23 -4 -34 -2 -34 6 0 9 -9 11 -29 6 -32 -7 -111 20 -111 39 0
6 -4 5 -9 -3 -8 -12 -13 -11 -29 10 -11 13 -24 21 -28 17 -7 -8 34 -47 49 -48
5 0 15 -7 24 -15 9 -10 23 -13 35 -9 12 3 18 2 15 -3 -6 -10 77 -37 148 -49
22 -4 46 -11 53 -17 8 -6 12 -6 12 2 0 6 9 11 20 11 11 0 20 -4 20 -10 0 -5 5
-10 11 -10 5 0 7 5 4 10 -3 6 -1 10 4 10 6 0 11 -6 11 -12 0 -10 2 -10 8 -1 4
7 18 11 30 8 12 -2 27 2 34 8 7 7 31 21 52 31 21 10 52 31 67 47 16 16 35 29
43 29 8 0 18 5 21 10 3 6 -2 10 -12 10 -20 0 -24 29 -9 62 4 9 9 22 10 30 1 7
7 23 14 35 7 12 12 24 12 27 0 11 -17 6 -27 -6z"/>
<path d="M3274 2186 c-8 -8 -8 -14 0 -22 15 -13 48 -11 53 4 3 7 -4 12 -15 12
-11 0 -22 4 -24 9 -1 5 -8 4 -14 -3z"/>
<path d="M3600 2098 c0 -12 7 -18 23 -17 15 0 17 2 7 6 -8 3 -18 11 -22 17 -5
7 -8 4 -8 -6z"/>
<path d="M5347 1984 c-3 -3 -24 -6 -46 -6 -22 0 -43 -4 -47 -9 -4 -6 -11 -6
-20 2 -11 9 -14 8 -14 -5 0 -9 7 -16 15 -16 8 0 15 -7 15 -16 0 -11 -5 -14
-16 -10 -11 4 -22 -1 -31 -14 -20 -29 -30 -25 -25 10 3 22 0 30 -11 30 -9 0
-19 -5 -22 -11 -4 -6 -14 -8 -22 -4 -25 9 -83 -6 -83 -21 0 -8 -9 -14 -19 -14
-11 0 -23 -5 -27 -12 -4 -7 -3 -8 4 -4 7 4 12 1 12 -8 0 -18 -43 -51 -48 -36
-5 14 -23 12 -21 -2 3 -27 -2 -38 -16 -38 -8 0 -15 -6 -15 -14 0 -8 -5 -18
-12 -22 -8 -5 -9 2 -4 26 6 32 5 32 -12 17 -10 -10 -24 -17 -30 -17 -15 0 -16
-37 -1 -46 6 -3 15 0 20 7 7 11 9 11 9 -2 0 -9 -7 -19 -15 -23 -8 -3 -15 -1
-15 4 0 19 -16 10 -33 -20 -18 -30 -47 -41 -47 -17 0 6 -10 0 -21 -15 -11 -16
-27 -28 -35 -28 -10 0 -13 -7 -8 -25 4 -15 2 -25 -5 -25 -6 0 -11 6 -11 13 0
6 -6 1 -13 -13 -9 -17 -20 -24 -36 -22 -20 2 -22 -1 -17 -22 4 -17 1 -28 -10
-34 -19 -11 -14 -48 7 -44 11 3 11 1 2 -9 -7 -7 -19 -9 -30 -3 -19 8 -29 11
-52 13 -8 1 -11 7 -6 19 4 11 3 14 -4 7 -17 -17 -18 -80 -1 -70 6 3 10 -1 10
-10 0 -11 5 -15 15 -11 17 6 19 -2 5 -24 -6 -10 -10 -11 -10 -3 0 17 -79 9
-120 -12 -30 -15 -31 -18 -17 -33 15 -14 18 -13 41 11 25 27 56 36 56 17 0 -5
-20 -28 -45 -51 -46 -42 -55 -58 -32 -55 13 1 17 -5 17 -29 0 -10 -10 -15 -28
-15 -41 0 -81 -56 -77 -107 2 -28 -6 -29 -25 -3 -17 24 -40 26 -40 5 0 -8 4
-15 10 -15 5 0 12 -10 15 -23 6 -21 12 -24 58 -24 53 0 78 9 112 40 11 10 44
36 73 58 28 22 52 47 53 57 0 10 3 12 6 5 6 -15 62 24 106 74 15 18 37 35 47
38 10 3 17 12 14 19 -3 9 6 16 26 20 19 3 30 11 28 18 -6 16 41 59 56 51 6 -3
8 -3 4 2 -9 10 7 25 60 59 23 14 42 31 42 36 0 6 6 10 13 10 6 0 38 25 71 55
32 30 64 55 71 55 6 0 22 9 35 20 13 11 30 20 40 20 28 0 70 24 70 41 0 21 24
31 39 16 8 -8 11 -7 11 5 0 17 32 31 67 28 12 -1 30 3 40 9 11 6 13 11 5 11
-8 0 -13 10 -12 23 4 43 0 57 -16 57 -9 0 -14 6 -11 13 2 6 12 12 23 12 10 0
19 7 19 15 0 10 -10 15 -29 15 -19 1 -36 10 -50 28 -12 15 -25 25 -29 21z m13
-39 c-7 -8 -16 -15 -21 -15 -5 0 -9 7 -9 15 0 9 9 15 21 15 18 0 19 -2 9 -15z
m-60 -16 c0 -6 -4 -7 -10 -4 -5 3 -10 1 -10 -5 0 -6 -4 -8 -10 -5 -6 4 -5 11
3 19 13 15 27 12 27 -5z m-150 -17 c0 -10 -22 -32 -32 -32 -4 0 -8 9 -8 20 0
13 7 20 20 20 11 0 20 -4 20 -8z m210 -29 c-11 -17 -11 -17 -6 0 3 10 6 24 7
30 0 9 2 9 5 0 3 -7 0 -20 -6 -30z m-276 9 c7 -12 -7 -29 -31 -36 -19 -6 -23
-3 -23 12 0 26 41 44 54 24z m328 -84 c-15 -15 -26 -4 -18 18 5 13 9 15 18 6
9 -9 9 -15 0 -24z m-652 -188 c0 -5 -5 -10 -11 -10 -5 0 -7 5 -4 10 3 6 8 10
11 10 2 0 4 -4 4 -10z m95 1 c3 -5 1 -12 -5 -16 -5 -3 -10 1 -10 9 0 18 6 21
15 7z m-155 -81 c0 -5 -5 -10 -11 -10 -5 0 -7 5 -4 10 3 6 8 10 11 10 2 0 4
-4 4 -10z m-36 -25 c-4 -8 -10 -12 -15 -9 -11 6 -2 24 11 24 5 0 7 -7 4 -15z
m56 -29 c0 -3 -4 -8 -10 -11 -5 -3 -10 -1 -10 4 0 6 5 11 10 11 6 0 10 -2 10
-4z m-63 -41 c-4 -8 -12 -15 -19 -14 -10 0 -10 2 0 6 6 2 12 12 12 21 0 8 3
13 6 9 4 -3 4 -13 1 -22z m-57 1 c0 -3 -4 -8 -10 -11 -5 -3 -10 -1 -10 4 0 6
5 11 10 11 6 0 10 -2 10 -4z m-91 -177 c-5 -11 -16 -16 -24 -13 -27 11 -13 31
22 31 8 0 9 -6 2 -18z m-109 -141 c0 -7 -5 -20 -10 -28 -12 -20 -33 0 -24 23
7 20 34 23 34 5z"/>
<path d="M4455 1920 c-3 -5 -1 -10 4 -10 6 0 11 5 11 10 0 6 -2 10 -4 10 -3 0
-8 -4 -11 -10z"/>
<path d="M2970 1870 c0 -5 5 -10 10 -10 6 0 10 5 10 10 0 6 -4 10 -10 10 -5 0
-10 -4 -10 -10z"/>
<path d="M185 1850 c-5 -9 18 -20 41 -20 8 0 14 4 14 9 0 11 -49 21 -55 11z"/>
<path d="M0 1823 c0 -20 3 -24 9 -14 5 7 13 11 17 8 5 -3 18 2 29 10 16 13 17
15 3 10 -10 -4 -18 -2 -18 3 0 6 -9 10 -20 10 -15 0 -20 -7 -20 -27z"/>
<path d="M3001 1824 c0 -11 3 -14 6 -6 3 7 2 16 -1 19 -3 4 -6 -2 -5 -13z"/>
<path d="M3665 1740 c-3 -5 -1 -10 4 -10 6 0 11 5 11 10 0 6 -2 10 -4 10 -3 0
-8 -4 -11 -10z"/>
<path d="M368 1663 c7 -3 16 -2 19 1 4 3 -2 6 -13 5 -11 0 -14 -3 -6 -6z"/>
<path d="M4570 1554 c0 -8 5 -12 10 -9 6 3 10 10 10 16 0 5 -4 9 -10 9 -5 0
-10 -7 -10 -16z"/>
<path d="M1490 1540 c0 -5 5 -10 11 -10 5 0 7 5 4 10 -3 6 -8 10 -11 10 -2 0
-4 -4 -4 -10z"/>
<path d="M1260 1486 c0 -9 8 -12 25 -8 14 2 25 8 25 13 0 5 -11 9 -25 9 -14 0
-25 -6 -25 -14z"/>
<path d="M5975 1471 c-3 -5 -1 -12 5 -16 5 -3 10 1 10 9 0 18 -6 21 -15 7z"/>
<path d="M6000 1475 c0 -15 18 -40 24 -34 3 3 -1 14 -9 25 -8 10 -14 15 -15 9z"/>
<path d="M6064 1439 c-3 -6 -1 -16 5 -22 8 -8 11 -5 11 11 0 24 -5 28 -16 11z"/>
<path d="M1305 1430 c-3 -5 -1 -10 4 -10 6 0 11 5 11 10 0 6 -2 10 -4 10 -3 0
-8 -4 -11 -10z"/>
<path d="M6130 1405 c-11 -13 -9 -19 8 -35 23 -22 42 -26 42 -10 0 6 -5 10
-11 10 -5 0 -7 5 -4 10 3 6 2 10 -4 10 -6 0 -8 7 -5 15 8 20 -10 19 -26 0z"/>
<path d="M5575 1349 c-4 -6 -4 -13 -1 -16 8 -8 36 5 36 17 0 13 -27 13 -35 -1z"/>
<path d="M5765 1350 c-3 -5 1 -10 10 -10 9 0 13 5 10 10 -3 6 -8 10 -10 10 -2
0 -7 -4 -10 -10z"/>
<path d="M5250 1262 c0 -14 11 -21 26 -15 21 8 17 23 -6 23 -11 0 -20 -4 -20
-8z"/>
<path d="M4306 1221 c-4 -7 -5 -15 -2 -18 9 -9 19 4 14 18 -4 11 -6 11 -12 0z"/>
<path d="M4381 1028 c-1 -10 5 -18 13 -18 17 0 31 18 21 28 -3 3 -10 0 -14 -7
-7 -11 -10 -11 -14 0 -4 10 -6 9 -6 -3z"/>
<path d="M5055 718 c-4 -9 -18 -19 -33 -23 -15 -3 -37 -16 -49 -27 -12 -11
-37 -23 -55 -27 -20 -4 -37 -15 -42 -28 -10 -22 -61 -57 -85 -58 -8 0 -16 -6
-19 -13 -8 -24 49 -1 152 61 55 33 122 70 150 83 31 14 43 24 31 24 -12 0 -26
5 -33 12 -9 9 -13 8 -17 -4z"/>
<path d="M6150 675 c0 -8 9 -23 20 -32 11 -10 20 -23 20 -29 0 -16 38 -25 43
-10 7 19 -4 36 -22 36 -10 0 -23 11 -29 25 -13 28 -32 34 -32 10z"/>
<path d="M5791 660 c-33 -8 -38 -27 -9 -35 13 -4 44 -22 69 -40 26 -18 60 -40
75 -48 35 -19 275 -251 298 -289 15 -26 23 -88 11 -88 -4 0 -22 16 -42 35 -19
19 -56 44 -82 56 -25 11 -56 26 -69 32 -35 16 -93 78 -109 115 -13 32 -16 34
-59 30 -24 -2 -44 1 -44 5 0 5 -4 5 -10 2 -5 -3 -8 -21 -5 -39 3 -27 0 -35
-15 -39 -28 -7 -62 14 -89 56 -17 26 -34 38 -58 43 -18 3 -33 10 -33 15 0 5
-9 9 -20 9 -12 0 -20 7 -20 16 0 13 -3 14 -15 4 -12 -10 -16 -9 -21 4 -4 10
-13 15 -20 12 -7 -3 -28 2 -45 11 -30 15 -31 17 -13 25 15 7 13 7 -9 4 -23 -3
-35 5 -69 45 -22 27 -49 51 -59 54 -21 7 -153 -57 -249 -120 -36 -23 -87 -55
-115 -70 -27 -15 -54 -31 -60 -35 -5 -4 -41 -24 -80 -45 -68 -36 -159 -99
-196 -136 -28 -28 -38 -54 -32 -79 6 -22 8 -22 77 -14 98 10 123 12 182 13 35
1 58 7 73 20 51 45 159 50 311 15 55 -12 82 -25 125 -60 65 -53 71 -80 25
-108 -17 -9 -28 -22 -25 -27 4 -5 213 -9 521 -9 l514 0 -2 282 -3 281 -30 9
c-16 5 -40 14 -52 20 -33 16 -40 1 -12 -25 l24 -22 -24 -3 c-13 -2 -32 5 -46
18 -19 18 -23 19 -28 6 -8 -20 -46 -21 -53 -1 -4 9 -17 13 -41 11 -19 -1 -41
3 -48 10 -18 18 -85 45 -85 34 0 -12 -82 19 -92 34 -4 6 -14 4 -27 -8 -15 -14
-24 -15 -39 -7 -11 6 -22 14 -24 19 -1 5 -14 6 -27 2z m353 -106 c18 -17 22
-39 6 -29 -11 7 -33 45 -26 45 2 0 12 -7 20 -16z m236 -23 c0 -6 -4 -13 -10
-16 -5 -3 -10 1 -10 9 0 9 5 16 10 16 6 0 10 -4 10 -9z"/>
<path d="M6075 660 c3 -5 13 -10 21 -10 8 0 12 5 9 10 -3 6 -13 10 -21 10 -8
0 -12 -4 -9 -10z"/>
<path d="M2060 470 c-11 -7 -11 -11 -1 -24 8 -9 10 -16 5 -16 -5 0 -3 -4 5 -9
16 -10 41 -4 41 10 0 5 -7 9 -15 9 -8 0 -12 6 -9 14 7 18 -8 27 -26 16z"/>
<path d="M4393 222 c-9 -15 -9 -22 0 -31 14 -14 47 -15 47 -1 0 6 -6 10 -14
10 -8 0 -16 9 -18 20 -3 20 -3 20 -15 2z"/>
</g>
</svg>
