<?xml version="1.0" standalone="no"?>
<!DOCTYPE svg PUBLIC "-//W3C//DTD SVG 20010904//EN"
 "http://www.w3.org/TR/2001/REC-SVG-20010904/DTD/svg10.dtd">
<svg version="1.0" xmlns="http://www.w3.org/2000/svg"
 width="206.000000pt" height="126.000000pt" viewBox="0 0 206.000000 126.000000"
 preserveAspectRatio="xMidYMid meet">

<g transform="translate(0.000000,126.000000) scale(0.100000,-0.100000)"
fill="#000000" stroke="none">
<path d="M536 1204 c-10 -27 -7 -32 41 -69 38 -29 55 -36 81 -33 32 4 32 3 49
-57 9 -33 17 -61 18 -61 0 -1 -65 -119 -145 -263 -82 -147 -153 -263 -163
-267 -30 -10 -41 -42 -22 -70 16 -24 49 -32 60 -14 4 6 67 10 156 10 l151 0
-7 -33 c-26 -125 -119 -221 -246 -253 -80 -20 -150 -12 -228 27 -196 98 -238
362 -81 519 70 70 181 106 279 91 46 -7 53 -6 62 12 18 33 -4 42 -104 42 -72
-1 -105 -6 -149 -24 -81 -31 -160 -106 -200 -189 -30 -61 -33 -74 -33 -162 0
-82 4 -103 27 -152 37 -80 107 -152 187 -191 60 -29 74 -32 161 -32 82 0 103
4 152 27 32 15 73 39 93 54 53 40 113 136 127 205 11 54 14 59 38 59 15 0 34
-8 43 -18 15 -16 15 -25 4 -77 -8 -40 -17 -60 -29 -63 -11 -2 -18 -14 -18 -28
0 -22 4 -24 50 -24 47 0 50 2 50 25 0 15 -6 25 -15 25 -8 0 -13 6 -11 13 2 6
10 33 16 60 7 26 18 47 24 47 26 0 50 29 55 67 5 36 31 68 196 252 l190 211
13 -31 c30 -72 28 -81 -30 -122 -113 -82 -163 -186 -156 -328 3 -68 10 -97 32
-142 38 -78 103 -142 184 -180 61 -29 76 -32 162 -32 87 0 101 3 161 32 80 39
150 111 187 191 23 49 27 70 27 152 0 82 -4 103 -27 152 -62 132 -183 215
-329 225 -63 5 -79 3 -79 -8 0 -30 19 -41 73 -45 127 -9 233 -80 285 -192 21
-45 26 -72 27 -132 0 -66 -5 -85 -33 -142 -18 -37 -49 -81 -69 -99 -131 -115
-321 -112 -451 6 -80 72 -119 204 -93 312 7 26 28 72 47 101 36 54 112 118
125 105 4 -5 21 -43 39 -86 17 -43 40 -97 51 -119 11 -22 22 -52 24 -66 1 -15
3 -30 4 -33 2 -14 34 -19 47 -8 20 16 17 42 -5 61 -10 9 -41 83 -69 169 -57
172 -142 453 -142 469 0 6 42 10 109 10 120 0 135 -7 129 -57 -2 -21 -12 -33
-40 -46 -25 -12 -38 -26 -38 -38 0 -42 65 -36 111 11 24 23 29 37 29 75 0 40
-5 52 -34 81 l-34 34 -150 0 c-173 0 -172 1 -142 -86 11 -32 20 -63 20 -71 0
-10 -53 -13 -284 -13 l-284 0 -26 76 c-14 42 -23 80 -20 85 2 5 21 11 42 14
66 12 73 15 70 38 -3 21 -8 22 -159 25 -136 2 -157 0 -163 -14z m301 -580 c41
-131 48 -164 38 -178 -11 -14 -37 -16 -204 -16 -105 0 -191 3 -191 6 0 4 30
60 66 125 71 128 73 129 120 77 31 -33 72 -102 80 -132 5 -20 12 -26 34 -26
28 0 28 1 18 38 -15 57 -51 113 -107 165 l-51 48 52 95 53 95 21 -68 c12 -38
44 -140 71 -229z m491 258 c-116 -135 -365 -402 -374 -402 -5 0 -39 93 -73
208 -35 114 -66 213 -68 220 -4 9 54 12 272 12 l277 0 -34 -38z"/>
<path d="M938 654 c-8 -8 3 -44 13 -44 5 0 9 -13 9 -30 0 -20 5 -30 15 -30 9
0 18 12 22 30 4 21 11 30 24 30 14 0 19 7 19 25 0 23 -3 25 -48 25 -27 0 -51
-3 -54 -6z"/>
</g>
</svg>
