<?xml version="1.0" standalone="no"?>
<!DOCTYPE svg PUBLIC "-//W3C//DTD SVG 20010904//EN"
 "http://www.w3.org/TR/2001/REC-SVG-20010904/DTD/svg10.dtd">
<svg version="1.0" xmlns="http://www.w3.org/2000/svg"
 width="614.000000pt" height="470.000000pt" viewBox="0 0 614.000000 470.000000"
 preserveAspectRatio="xMidYMid meet">

<g transform="translate(0.000000,470.000000) scale(0.100000,-0.100000)"
fill="#000000" stroke="none">
<path d="M4283 4155 c-88 -16 -111 -28 -119 -62 -4 -15 7 -101 26 -202 18 -97
45 -243 60 -326 16 -82 25 -153 22 -156 -4 -4 -51 -21 -105 -39 -113 -37 -136
-59 -121 -113 7 -23 20 -37 46 -49 30 -14 40 -28 62 -85 14 -37 22 -71 18 -75
-5 -5 -74 -31 -153 -58 -79 -27 -304 -103 -499 -170 -195 -67 -386 -133 -425
-145 -38 -13 -188 -64 -332 -113 -145 -50 -265 -87 -267 -84 -15 26 -65 207
-59 212 4 4 50 19 101 34 168 47 194 68 171 136 -15 41 -39 45 -161 25 -545
-87 -531 -84 -559 -129 -36 -59 -16 -131 45 -160 44 -21 42 -21 157 15 55 18
102 29 105 27 9 -9 64 -209 64 -232 0 -15 -21 -34 -81 -70 l-80 -48 -76 82
c-133 142 -274 242 -427 300 -455 175 -936 68 -1272 -282 -124 -128 -228 -314
-280 -498 -35 -128 -45 -373 -20 -501 49 -242 142 -421 311 -597 221 -231 508
-354 825 -354 512 1 948 321 1110 815 29 88 49 90 79 8 26 -73 94 -151 156
-180 l45 -21 0 -75 0 -75 -30 0 c-68 0 -111 -49 -91 -103 16 -42 50 -49 214
-45 165 3 177 8 177 73 0 42 -28 66 -85 72 l-45 6 0 61 c0 33 4 66 8 71 4 6
26 16 49 23 69 20 137 82 174 158 42 86 46 180 10 259 l-22 50 158 155 c87 85
368 363 624 617 256 255 471 463 477 463 12 0 52 -100 52 -130 0 -11 -6 -20
-14 -20 -28 0 -199 -122 -282 -202 -232 -223 -356 -511 -357 -833 -2 -474 290
-898 743 -1078 139 -56 231 -71 415 -71 144 0 183 3 251 22 238 64 386 147
557 311 323 310 439 778 295 1196 -117 344 -385 607 -736 725 -48 16 -143 37
-212 46 -106 15 -142 15 -240 6 -63 -6 -148 -20 -188 -30 -53 -14 -75 -16 -82
-7 -5 6 -27 60 -49 121 -55 151 -81 217 -91 229 -4 6 -24 49 -43 98 -40 99
-44 93 55 121 39 11 63 25 74 42 19 27 21 8 -66 474 -42 222 -42 212 0 223 67
17 87 29 99 53 16 37 14 52 -14 79 -27 28 -45 29 -152 10z m-518 -1673 c-220
-218 -501 -497 -625 -620 l-226 -223 -49 22 c-31 14 -72 22 -107 23 -43 1 -59
5 -62 16 -117 408 -176 623 -173 626 2 2 150 54 328 115 178 61 488 167 689
236 201 68 421 144 490 167 69 24 127 41 130 39 2 -2 -176 -183 -395 -401z
m-2299 42 c120 -24 248 -83 359 -165 61 -44 185 -167 185 -183 0 -6 -12 -20
-27 -30 -14 -10 -147 -106 -296 -213 l-271 -195 -33 16 c-112 53 -260 -27
-279 -151 -19 -127 101 -249 224 -227 48 9 89 30 117 60 l22 24 164 -25 c90
-14 220 -34 289 -44 69 -11 151 -23 183 -27 31 -3 60 -10 63 -15 14 -24 -59
-190 -129 -294 -77 -112 -217 -233 -347 -299 -62 -32 -197 -74 -275 -87 -114
-18 -299 -7 -408 25 -328 97 -586 368 -662 696 -88 385 71 778 405 999 212
140 463 188 716 135z m3530 -5 c122 -21 270 -82 374 -152 61 -42 174 -151 220
-212 216 -290 243 -699 68 -1012 -94 -170 -215 -291 -380 -381 -218 -121 -496
-143 -743 -61 -286 96 -504 325 -602 634 -26 85 -28 100 -27 260 0 156 3 178
28 260 70 232 228 431 428 544 l58 33 15 -34 c15 -35 77 -194 150 -388 24 -63
60 -155 79 -205 41 -104 43 -116 17 -139 -26 -24 -43 -99 -35 -155 9 -60 78
-133 143 -151 161 -43 301 136 223 286 -27 52 -102 104 -151 104 -19 0 -21 5
-186 425 -47 121 -94 240 -105 265 -17 40 -17 46 -3 54 54 30 314 46 429 25z
m-2550 -419 c20 -74 44 -164 54 -200 10 -36 30 -109 44 -162 l27 -97 -44 -43
c-24 -24 -52 -63 -63 -86 -33 -72 -43 -55 -43 76 -1 182 -36 339 -115 516 -15
32 -25 60 -23 63 27 26 113 81 118 76 5 -5 25 -69 45 -143z m-318 -117 c52
-113 81 -256 82 -395 l0 -78 -27 0 c-16 0 -71 7 -123 15 -52 7 -174 25 -270
39 -208 31 -290 46 -290 55 0 3 75 58 167 121 207 143 361 250 393 273 36 25
44 22 68 -30z"/>
</g>
</svg>
