<?xml version="1.0" standalone="no"?>
<!DOCTYPE svg PUBLIC "-//W3C//DTD SVG 20010904//EN"
 "http://www.w3.org/TR/2001/REC-SVG-20010904/DTD/svg10.dtd">
<svg version="1.0" xmlns="http://www.w3.org/2000/svg"
 width="200.000000pt" height="200.000000pt" viewBox="0 0 200.000000 200.000000"
 preserveAspectRatio="xMidYMid meet">

<g transform="translate(0.000000,200.000000) scale(0.100000,-0.100000)"
fill="#000000" stroke="none">
<path d="M826 1885 c-351 -73 -615 -319 -708 -660 -31 -114 -31 -335 0 -450
69 -253 243 -466 475 -580 142 -70 224 -88 397 -88 173 0 255 18 397 88 180
89 319 228 408 408 70 142 88 224 88 397 0 173 -18 255 -88 397 -115 233 -330
409 -580 474 -104 27 -293 34 -389 14z m6 -592 l158 -157 158 157 c87 86 162
157 166 157 18 0 116 -105 116 -125 0 -14 -48 -69 -150 -169 -82 -82 -150
-151 -150 -155 0 -3 66 -71 146 -151 80 -80 150 -153 155 -163 8 -14 0 -27
-38 -68 -79 -85 -64 -91 -244 87 l-159 158 -159 -158 c-138 -136 -162 -156
-178 -148 -26 14 -103 99 -103 113 0 6 70 85 155 174 l155 163 -155 147 c-110
105 -155 154 -155 170 0 20 97 125 116 125 4 0 79 -71 166 -157z"/>
</g>
</svg>
