<?xml version="1.0" standalone="no"?>
<!DOCTYPE svg PUBLIC "-//W3C//DTD SVG 20010904//EN"
 "http://www.w3.org/TR/2001/REC-SVG-20010904/DTD/svg10.dtd">
<svg version="1.0" xmlns="http://www.w3.org/2000/svg"
 width="239.000000pt" height="204.000000pt" viewBox="0 0 239.000000 204.000000"
 preserveAspectRatio="xMidYMid meet">

<g transform="translate(0.000000,204.000000) scale(0.100000,-0.100000)"
fill="#000000" stroke="none">
<path d="M570 1639 c0 -12 15 -36 34 -55 28 -28 41 -34 78 -34 l44 0 21 -67
c12 -38 24 -80 27 -94 8 -38 -282 -633 -325 -667 -35 -28 -38 -65 -6 -86 25
-17 174 -75 290 -113 42 -14 77 -31 77 -37 0 -18 -44 -74 -89 -112 -193 -166
-495 -98 -605 136 -27 58 -31 75 -31 160 0 118 23 181 94 261 71 80 157 121
264 127 45 2 100 -1 122 -7 42 -11 49 -8 59 26 6 18 1 23 -31 34 -61 21 -198
16 -268 -9 -129 -48 -226 -140 -275 -264 -21 -54 -25 -79 -25 -173 1 -102 3
-115 33 -178 39 -85 133 -182 215 -221 117 -58 270 -58 392 -2 62 28 162 118
191 171 21 40 31 42 98 19 68 -23 139 -15 176 21 76 73 57 192 -36 231 -42 17
-133 19 -117 3 9 -9 4 -18 -18 -36 -16 -13 -34 -42 -40 -63 -11 -35 -14 -38
-39 -33 -25 4 -29 1 -40 -31 -6 -20 -15 -36 -20 -36 -4 0 -72 23 -151 50 -132
47 -175 67 -166 77 3 2 82 -8 177 -22 210 -31 217 -31 225 -4 4 11 5 22 3 24
-2 2 -88 15 -192 28 -215 29 -259 46 -120 48 l89 2 -81 10 -82 10 48 101 c26
55 84 177 129 269 44 93 81 173 81 179 0 5 5 8 11 6 10 -3 34 -75 110 -338 59
-203 64 -215 87 -218 30 -5 29 9 -17 157 -52 168 -131 435 -131 444 0 4 170 7
379 7 291 0 381 -3 388 -12 5 -7 15 -33 22 -58 7 -25 14 -52 17 -61 3 -11 -74
-89 -247 -250 -139 -129 -257 -237 -262 -241 -11 -7 8 -38 24 -38 4 0 121 106
259 235 190 178 257 235 276 235 19 0 24 4 20 18 -29 95 -56 197 -56 209 0 11
-11 14 -42 13 -24 -2 -212 -2 -418 -1 l-376 1 -26 79 c-14 44 -23 82 -20 85 3
3 45 6 93 6 53 0 91 4 95 11 14 24 -24 38 -136 49 -63 6 -146 18 -183 26 -38
8 -70 14 -73 14 -2 0 -4 -9 -4 -21z m-73 -955 c3 -8 -2 -23 -11 -32 -15 -15
-17 -15 -32 0 -21 21 -11 48 16 48 11 0 23 -7 27 -16z m556 -1 c-7 -2 -19 -2
-25 0 -7 3 -2 5 12 5 14 0 19 -2 13 -5z m17 -28 c-16 -45 -69 -45 -76 1 -3 17
3 19 40 19 39 0 43 -2 36 -20z m60 -14 c5 -11 10 -31 10 -45 0 -21 -5 -26 -24
-26 -32 0 -50 24 -42 55 6 23 9 24 29 14 20 -11 21 -11 8 4 -8 11 -9 17 -3 17
6 0 16 -9 22 -19z m-130 -52 c0 -10 -9 -23 -20 -29 -11 -6 -20 -8 -20 -4 0 3
-7 1 -15 -6 -13 -11 -15 -8 -15 22 0 18 7 44 17 57 l16 24 19 -23 c10 -12 18
-31 18 -41z m111 -39 c15 0 10 -19 -11 -40 -11 -11 -16 -20 -11 -20 5 0 19 12
31 28 13 17 17 19 11 6 -11 -23 -28 -38 -54 -47 -11 -4 -16 -3 -12 3 3 6 1 10
-4 10 -15 0 -14 43 1 58 7 7 19 10 26 7 8 -3 18 -5 23 -5z m-164 -62 c19 -21
16 -22 -26 -7 -36 13 -35 10 -19 44 l12 27 9 -23 c4 -13 15 -32 24 -41z m69
54 c6 -4 14 -17 18 -29 6 -18 3 -23 -11 -24 -16 0 -16 -1 2 -10 16 -7 14 -8
-10 -4 -16 4 -39 15 -50 26 -20 20 -20 20 -1 35 22 16 35 17 52 6z"/>
<path d="M1015 640 c3 -5 10 -10 16 -10 5 0 9 5 9 10 0 6 -7 10 -16 10 -8 0
-12 -4 -9 -10z"/>
<path d="M951 608 c-1 -21 18 -33 31 -20 6 6 6 12 -1 16 -6 4 -11 1 -12 -6 0
-7 -4 -4 -9 7 -7 16 -9 17 -9 3z"/>
<path d="M960 521 c0 -10 29 -36 34 -30 1 2 -6 12 -16 22 -10 9 -18 13 -18 8z"/>
<path d="M1944 1519 c-9 -15 -60 -35 -110 -44 -30 -4 -45 -2 -56 8 -11 12 -34
14 -106 9 -81 -4 -92 -7 -92 -23 0 -11 5 -19 10 -19 6 0 10 -7 10 -15 0 -8 9
-15 20 -15 11 0 23 7 26 15 8 20 74 21 74 1 0 -19 22 -26 80 -26 92 0 212 64
197 104 -7 18 -43 21 -53 5z"/>
<path d="M1673 1088 c6 -55 40 -143 122 -313 26 -55 51 -107 55 -115 10 -21
44 -19 48 3 2 10 -3 26 -11 35 -34 38 -111 242 -163 430 -2 6 -15 12 -30 12
-26 0 -27 -1 -21 -52z m207 -418 c0 -5 -4 -10 -10 -10 -5 0 -10 5 -10 10 0 6
5 10 10 10 6 0 10 -4 10 -10z"/>
<path d="M1815 1125 c-5 -2 -23 -6 -38 -9 -23 -6 -28 -11 -25 -33 l3 -26 111
-1 c105 -1 113 -3 178 -35 191 -97 269 -322 178 -513 -111 -231 -401 -298
-601 -138 -137 110 -181 314 -103 472 23 46 51 84 92 121 57 51 75 87 50 102
-14 9 -92 -47 -135 -97 -20 -24 -51 -72 -68 -108 -31 -62 -32 -70 -32 -185 0
-114 1 -123 32 -188 65 -137 192 -235 336 -260 88 -15 197 1 275 39 82 41 175
137 215 221 29 64 31 75 32 183 0 112 -1 117 -37 193 -64 134 -181 226 -326
256 -50 10 -115 13 -137 6z"/>
<path d="M680 1039 c-10 -18 -5 -27 49 -75 71 -64 119 -154 127 -236 5 -57 17
-78 44 -78 44 0 22 149 -36 247 -42 69 -65 96 -118 134 -47 35 -52 35 -66 8z"/>
<path d="M718 713 c7 -3 16 -2 19 1 4 3 -2 6 -13 5 -11 0 -14 -3 -6 -6z"/>
</g>
</svg>
