<?xml version="1.0" standalone="no"?>
<!DOCTYPE svg PUBLIC "-//W3C//DTD SVG 20010904//EN"
 "http://www.w3.org/TR/2001/REC-SVG-20010904/DTD/svg10.dtd">
<svg version="1.0" xmlns="http://www.w3.org/2000/svg"
 width="108.000000pt" height="79.000000pt" viewBox="0 0 108.000000 79.000000"
 preserveAspectRatio="xMidYMid meet">

<g transform="translate(0.000000,79.000000) scale(0.100000,-0.100000)"
fill="#000000" stroke="none">
<path d="M70 720 c-11 -11 -20 -29 -20 -40 0 -11 9 -29 20 -40 19 -19 33 -20
490 -20 457 0 471 1 490 20 11 11 20 29 20 40 0 11 -9 29 -20 40 -19 19 -33
20 -490 20 -457 0 -471 -1 -490 -20z"/>
<path d="M70 420 c-11 -11 -20 -29 -20 -40 0 -11 9 -29 20 -40 19 -19 33 -20
490 -20 457 0 471 1 490 20 11 11 20 29 20 40 0 11 -9 29 -20 40 -19 19 -33
20 -490 20 -457 0 -471 -1 -490 -20z"/>
<path d="M70 120 c-11 -11 -20 -29 -20 -40 0 -11 9 -29 20 -40 19 -19 33 -20
490 -20 457 0 471 1 490 20 11 11 20 29 20 40 0 11 -9 29 -20 40 -19 19 -33
20 -490 20 -457 0 -471 -1 -490 -20z"/>
</g>
</svg>
