<?xml version="1.0" standalone="no"?>
<!DOCTYPE svg PUBLIC "-//W3C//DTD SVG 20010904//EN"
 "http://www.w3.org/TR/2001/REC-SVG-20010904/DTD/svg10.dtd">
<svg version="1.0" xmlns="http://www.w3.org/2000/svg"
 width="751.000000pt" height="491.000000pt" viewBox="0 0 751.000000 491.000000"
 preserveAspectRatio="xMidYMid meet">

<g transform="translate(0.000000,491.000000) scale(0.100000,-0.100000)"
fill="#000000" stroke="none">
<path d="M5119 4590 c-27 -27 -30 -34 -24 -74 14 -90 -7 -103 -145 -85 -71 9
-96 9 -120 -1 -42 -17 -49 -35 -48 -118 1 -89 9 -97 94 -96 51 0 75 7 124 32
39 21 92 38 153 48 98 17 141 34 151 59 14 36 5 112 -19 163 -48 102 -109 129
-166 72z"/>
<path d="M2789 4429 c-31 -4 -96 -19 -145 -32 -135 -37 -148 -38 -288 -21
-160 19 -286 16 -339 -10 -65 -32 -119 -150 -85 -184 8 -8 47 -12 108 -12 94
0 97 -1 165 -41 176 -104 283 -102 396 6 77 74 117 90 282 114 199 29 231 51
165 113 -64 60 -153 83 -259 67z"/>
<path d="M4914 4147 l-61 -22 74 -230 c41 -126 77 -232 78 -234 7 -6 150 47
149 55 -1 5 -34 109 -73 232 -57 177 -75 222 -89 221 -9 0 -44 -10 -78 -22z"/>
<path d="M2500 4033 c-25 -8 -51 -16 -58 -19 -20 -6 15 -60 60 -89 23 -16 40
-36 46 -57 5 -18 44 -142 87 -274 l78 -242 66 23 c41 14 66 28 65 36 -2 25
-164 523 -182 559 -18 36 -74 81 -101 79 -9 0 -36 -7 -61 -16z"/>
<path d="M4690 3830 c-114 -38 -403 -132 -1213 -394 -231 -74 -420 -136 -422
-138 -7 -6 41 -142 51 -145 9 -3 1736 551 1756 563 8 5 -41 154 -50 153 -4 0
-59 -18 -122 -39z"/>
<path d="M5123 3569 c-35 -11 -63 -24 -63 -30 0 -28 56 -112 96 -146 107 -87
98 -70 213 -378 143 -378 138 -368 159 -360 9 4 36 14 59 22 24 8 45 18 48 23
5 8 -220 612 -248 666 -14 27 -47 60 -135 136 -17 15 -38 41 -47 58 -8 16 -17
30 -18 29 -1 0 -30 -9 -64 -20z"/>
<path d="M4703 3422 c-49 -59 -276 -332 -504 -607 -227 -275 -462 -558 -521
-630 -60 -71 -108 -132 -108 -136 0 -8 110 -99 120 -99 4 0 20 17 36 38 16 20
119 145 229 278 110 132 263 317 340 410 77 93 247 298 377 456 131 158 238
289 238 291 0 3 -26 28 -59 56 l-58 51 -90 -108z"/>
<path d="M2816 3264 c-38 -13 -71 -26 -73 -28 -2 -2 71 -235 162 -517 92 -283
178 -549 191 -592 20 -62 29 -77 42 -73 89 25 132 41 132 50 0 15 -372 1169
-379 1177 -3 4 -37 -4 -75 -17z"/>
<path d="M5540 3165 c-11 -13 -6 -30 28 -103 57 -121 112 -322 112 -407 0 -32
-3 -34 -65 -57 -36 -12 -65 -28 -65 -35 0 -10 191 -529 226 -611 l14 -34 26
31 c14 17 39 39 55 48 16 10 29 21 29 27 0 5 -36 104 -81 220 l-80 210 10 80
c17 123 13 174 -20 307 -33 130 -72 239 -109 302 -24 40 -57 49 -80 22z"/>
<path d="M1385 3150 c-574 -90 -1024 -504 -1155 -1064 -107 -453 31 -943 360
-1277 196 -199 435 -331 710 -390 150 -33 410 -33 558 -1 277 60 504 183 697
376 106 106 169 189 230 299 20 37 41 70 46 73 18 11 451 114 479 114 17 0 30
-7 35 -18 4 -9 33 -87 65 -172 32 -85 61 -163 65 -173 6 -15 1 -17 -39 -17
-77 0 -111 -53 -63 -98 22 -21 32 -22 208 -22 205 0 229 6 229 59 0 47 -26 61
-118 61 -76 0 -82 1 -87 23 -3 12 -25 107 -49 212 l-42 190 52 48 c31 28 65
72 81 105 25 51 28 68 28 157 0 95 -2 103 -34 163 -41 75 -94 125 -170 161
-63 29 -94 31 -367 16 l-151 -8 -12 69 c-17 94 -71 255 -121 356 -40 79 -146
248 -156 248 -7 0 -194 -151 -194 -157 0 -2 19 -31 41 -65 82 -120 179 -357
179 -435 0 -21 -4 -23 -57 -23 -32 0 -222 -5 -422 -11 l-363 -11 -45 46 c-71
71 -121 91 -228 91 -102 0 -147 -18 -210 -80 -61 -61 -89 -129 -89 -215 -1
-65 4 -85 32 -144 17 -37 32 -76 32 -85 0 -30 39 -80 76 -98 26 -13 40 -28 48
-53 9 -28 19 -37 60 -52 53 -19 90 -48 112 -90 18 -34 18 -53 -2 -139 -13 -57
-20 -72 -39 -79 -76 -29 -45 -150 34 -138 17 3 31 1 31 -4 0 -4 7 -8 15 -8 8
0 189 43 402 95 213 52 389 93 391 90 2 -2 -36 -44 -84 -93 -478 -482 -1264
-440 -1688 90 -87 108 -178 289 -212 423 -32 124 -42 313 -25 435 77 522 485
914 1011 971 210 23 413 -16 620 -119 63 -31 117 -58 121 -60 3 -1 37 43 74
99 l69 101 -24 19 c-41 33 -260 136 -335 158 -146 43 -210 52 -380 56 -93 2
-197 0 -230 -5z m295 -1177 c78 -41 113 -96 118 -182 5 -76 -15 -128 -65 -176
-88 -83 -221 -82 -307 1 -49 47 -67 91 -68 163 -2 167 173 272 322 194z m1383
-99 c-140 -148 -116 -400 50 -524 30 -22 42 -37 34 -41 -17 -9 -278 -71 -282
-67 -2 2 12 48 31 103 18 55 30 103 26 106 -6 5 -220 59 -235 59 -3 0 -17 -37
-32 -82 -29 -91 -97 -233 -123 -260 -11 -11 -158 -51 -412 -113 -217 -52 -403
-98 -412 -101 -14 -4 -18 1 -18 25 0 16 -4 33 -10 36 -5 3 16 40 46 81 118
159 130 236 58 353 l-40 64 43 40 c62 57 96 132 96 215 0 37 -3 76 -6 88 -7
21 -4 21 125 27 73 4 262 10 421 13 l287 7 0 -61 0 -62 125 0 125 0 1 28 c1
15 0 44 -1 64 l-1 37 68 3 c37 2 69 3 71 2 1 0 -14 -18 -35 -40z m330 -68 c50
-18 76 -42 98 -91 24 -51 23 -120 0 -165 l-19 -35 -11 41 c-6 22 -14 56 -17
75 -19 105 -129 154 -191 86 -50 -55 -51 -79 -7 -189 14 -33 23 -63 20 -65 -7
-8 -57 25 -79 51 -65 77 -60 181 12 249 58 55 120 69 194 43z"/>
<path d="M1505 1951 c-77 -36 -115 -95 -115 -179 0 -119 113 -207 230 -181
153 35 202 230 81 332 -57 48 -131 58 -196 28z m104 -92 c91 -32 66 -169 -31
-169 -65 0 -103 60 -77 121 10 26 30 41 75 59 1 0 15 -5 33 -11z"/>
<path d="M1552 1808 c-7 -7 -12 -21 -12 -33 0 -46 48 -60 74 -23 20 28 20 33
0 52 -18 19 -45 21 -62 4z"/>
<path d="M1956 1709 c-3 -17 -6 -44 -6 -59 l0 -27 103 -6 c300 -19 830 -48
832 -45 2 2 5 28 7 58 l3 54 -375 22 c-206 12 -416 25 -466 28 l-91 6 -7 -31z"/>
<path d="M5858 3153 c-21 -5 -21 -18 -5 -152 l12 -95 145 -2 c104 -1 171 -7
236 -22 465 -105 809 -473 880 -942 18 -121 18 -210 -1 -333 -89 -588 -622
-1008 -1215 -957 -509 45 -920 420 -1016 927 -22 118 -15 352 15 469 50 200
148 371 301 526 l106 108 -73 95 c-41 52 -79 95 -85 95 -21 0 -242 -233 -290
-306 -110 -166 -179 -329 -220 -516 -31 -149 -31 -400 1 -548 59 -276 183
-503 380 -701 425 -423 1063 -529 1592 -263 401 201 679 574 753 1013 20 117
21 327 2 442 -110 679 -692 1174 -1374 1168 -70 -1 -135 -3 -144 -6z"/>
<path d="M2570 2938 c-47 -44 -248 -243 -448 -441 l-364 -360 46 -46 46 -46
382 381 c211 209 413 409 451 444 l68 64 -43 43 c-23 24 -45 43 -48 43 -3 0
-43 -37 -90 -82z"/>
<path d="M5949 1960 c-77 -23 -130 -97 -131 -183 -1 -62 18 -102 66 -145 153
-134 383 38 297 223 -41 90 -138 134 -232 105z m91 -150 c23 -23 24 -33 10
-61 -12 -22 -59 -26 -78 -7 -17 17 -15 54 4 72 21 21 40 20 64 -4z"/>
</g>
</svg>
