<?xml version="1.0" standalone="no"?>
<!DOCTYPE svg PUBLIC "-//W3C//DTD SVG 20010904//EN"
 "http://www.w3.org/TR/2001/REC-SVG-20010904/DTD/svg10.dtd">
<svg version="1.0" xmlns="http://www.w3.org/2000/svg"
 width="202.000000pt" height="134.000000pt" viewBox="0 0 202.000000 134.000000"
 preserveAspectRatio="xMidYMid meet">

<g transform="translate(0.000000,134.000000) scale(0.100000,-0.100000)"
fill="#000000" stroke="none">
<path d="M1611 1139 l-22 -29 -124 0 c-69 0 -125 -4 -125 -9 0 -37 11 -41 120
-41 91 0 109 -3 123 -18 34 -37 18 -78 -34 -92 -29 -8 -39 -16 -39 -30 0 -11
7 -20 15 -20 26 0 87 29 101 48 18 23 17 83 -1 109 -13 18 -13 22 0 33 17 14
35 5 35 -17 0 -22 31 -83 42 -83 5 0 2 10 -6 22 -9 12 -16 32 -16 45 0 12 -11
42 -24 67 l-24 44 -21 -29z"/>
<path d="M550 1136 c-20 -25 -5 -43 39 -50 23 -3 59 -9 81 -12 28 -4 47 -1 63
9 13 8 48 20 80 27 100 20 76 30 -77 30 -79 0 -151 2 -159 5 -7 3 -20 -1 -27
-9z"/>
<path d="M695 1050 c-3 -6 3 -22 14 -36 11 -14 23 -38 26 -54 7 -32 12 -35 33
-22 10 7 9 17 -3 52 -8 24 -20 49 -26 57 -13 15 -35 17 -44 3z"/>
<path d="M1370 1024 c0 -8 199 -555 206 -566 7 -10 34 2 34 16 0 6 -45 133
-99 281 -84 228 -102 270 -120 273 -12 2 -21 0 -21 -4z"/>
<path d="M830 920 c0 -19 7 -20 260 -20 253 0 260 1 260 20 0 19 -7 20 -260
20 -253 0 -260 -1 -260 -20z"/>
<path d="M760 884 c0 -9 29 -105 65 -214 59 -177 68 -197 85 -193 11 3 20 8
20 11 0 3 -30 97 -67 209 -54 164 -70 203 -85 203 -10 0 -18 -7 -18 -16z"/>
<path d="M617 685 c-111 -171 -119 -185 -102 -191 9 -4 228 326 227 343 -1 29
-31 -7 -125 -152z"/>
<path d="M1207 660 c-86 -103 -157 -193 -157 -198 0 -9 30 -26 35 -20 1 2 70
85 153 185 84 100 152 186 152 191 0 5 -6 14 -13 20 -10 9 -48 -31 -170 -178z"/>
<path d="M323 762 c-101 -36 -171 -100 -220 -202 -24 -48 -27 -68 -28 -150 0
-83 3 -102 27 -152 37 -80 71 -122 132 -162 150 -100 337 -85 472 37 l52 47
116 0 117 0 14 -32 c13 -32 13 -33 -11 -36 -52 -7 -20 -22 46 -22 40 0 70 4
70 10 0 6 -13 10 -29 10 -26 0 -29 4 -35 41 -6 35 -3 44 14 56 48 33 64 117
35 174 -28 53 -68 69 -176 69 l-97 0 -7 38 c-8 46 -59 143 -91 173 -21 20 -24
20 -30 5 -4 -11 5 -33 25 -61 31 -43 61 -113 61 -141 0 -11 -26 -14 -126 -14
-111 0 -129 2 -151 20 -27 21 -73 26 -102 10 -33 -17 -45 -63 -31 -120 7 -27
16 -53 21 -56 5 -3 14 -14 20 -25 8 -17 5 -25 -21 -49 -17 -16 -29 -34 -25
-40 4 -6 68 -10 168 -10 l162 -1 -39 -34 c-125 -111 -339 -96 -456 31 -66 72
-85 123 -85 229 0 78 4 97 28 146 31 63 93 126 159 160 35 19 59 23 133 24 50
0 104 -4 121 -8 25 -6 33 -5 38 8 15 40 -179 60 -271 27z m167 -312 c39 -39
11 -110 -44 -110 -27 0 -66 42 -66 71 0 27 36 59 65 59 14 0 34 -9 45 -20z
m296 -25 c4 -8 12 -15 19 -15 7 0 15 7 19 15 3 9 19 15 41 15 40 0 44 -9 15
-35 -47 -42 -48 -122 -3 -175 l25 -30 -66 0 c-36 0 -66 2 -66 5 0 4 6 18 14
33 26 51 28 70 9 74 -13 2 -25 -12 -45 -54 l-27 -58 -163 0 -163 0 39 31 c31
26 37 37 34 60 -3 16 -1 29 4 29 23 0 58 51 58 85 l0 35 125 0 c102 0 127 -3
131 -15z m228 -19 c65 -27 86 -98 45 -150 -26 -34 -39 -21 -39 40 0 63 -38 85
-75 44 -18 -20 -18 -22 8 -72 15 -28 25 -53 23 -55 -7 -8 -55 17 -75 38 -24
26 -28 94 -7 121 13 17 63 48 79 48 4 0 23 -6 41 -14z"/>
<path d="M410 440 c-11 -11 -20 -27 -20 -35 0 -18 35 -55 53 -55 24 0 57 31
57 54 0 26 -28 56 -53 56 -9 0 -26 -9 -37 -20z m58 -33 c4 -20 -25 -34 -40
-19 -15 15 -1 44 19 40 10 -2 19 -11 21 -21z"/>
<path d="M440 404 c0 -8 5 -12 10 -9 6 4 8 11 5 16 -9 14 -15 11 -15 -7z"/>
<path d="M550 381 c0 -17 11 -19 148 -26 107 -5 122 -4 122 9 0 12 -10 16 -37
16 -21 0 -82 3 -135 7 -72 4 -98 3 -98 -6z"/>
<path d="M1550 762 c0 -18 8 -20 93 -24 70 -3 102 -10 135 -27 66 -34 128 -97
159 -160 24 -49 28 -68 28 -146 0 -106 -19 -157 -85 -229 -89 -96 -240 -132
-362 -86 -228 86 -295 377 -127 550 37 38 46 70 21 70 -17 0 -90 -88 -119
-142 -26 -49 -28 -62 -28 -163 0 -106 1 -112 34 -173 109 -201 356 -263 547
-136 61 40 95 82 132 162 24 50 27 69 27 152 -1 84 -4 102 -30 155 -37 76
-110 149 -183 183 -45 20 -77 27 -149 30 -88 4 -93 3 -93 -16z"/>
<path d="M1600 435 c-7 -8 -10 -25 -6 -39 8 -33 42 -43 67 -20 23 21 24 37 3
58 -20 20 -48 20 -64 1z m48 -27 c-6 -18 -28 -21 -28 -4 0 9 7 16 16 16 9 0
14 -5 12 -12z"/>
</g>
</svg>
